<?xml version="1.0" encoding="UTF-8"?>
<!-- Generator: visioncortex VTracer 0.6.3 -->
<svg version="1.1" xmlns="http://www.w3.org/2000/svg" width="1280" height="293">
<path d="M0 0 C1.63 -0 3.26 -0.01 4.89 -0.01 C9.27 -0.02 13.65 -0.02 18.03 -0.02 C20.77 -0.02 23.51 -0.02 26.25 -0.03 C35.82 -0.04 45.39 -0.04 54.96 -0.04 C63.87 -0.04 72.78 -0.05 81.69 -0.07 C89.36 -0.08 97.03 -0.08 104.7 -0.08 C109.27 -0.08 113.84 -0.09 118.42 -0.1 C122.7 -0.11 126.99 -0.11 131.28 -0.1 C132.86 -0.1 134.43 -0.1 136 -0.11 C138.15 -0.11 140.29 -0.11 142.44 -0.1 C143.64 -0.1 144.84 -0.1 146.08 -0.1 C149.38 0.17 151.75 0.77 154.12 3.15 C154.45 4.14 154.78 5.13 155.12 6.15 C153.31 8.83 153.31 8.83 151.12 11.15 C150.46 11.15 149.8 11.15 149.12 11.15 C148.79 12.47 148.46 13.79 148.12 15.15 C147.46 15.15 146.8 15.15 146.12 15.15 C145.75 16.23 145.75 16.23 145.37 17.33 C144 20.42 142.4 22.66 140.12 25.15 C139.46 25.15 138.8 25.15 138.12 25.15 C137.79 26.47 137.46 27.79 137.12 29.15 C136.46 29.15 135.8 29.15 135.12 29.15 C134.75 30.23 134.75 30.23 134.37 31.33 C132.84 34.78 132 36.62 129.12 39.15 C125.09 39.87 121.1 39.7 117.01 39.6 C115.77 39.59 114.53 39.58 113.26 39.57 C110.56 39.54 107.87 39.51 105.18 39.46 C100.92 39.38 96.66 39.35 92.39 39.32 C81.81 39.23 71.22 39.1 60.64 38.96 C52.41 38.84 44.19 38.74 35.96 38.69 C31.73 38.66 27.49 38.6 23.26 38.52 C20 38.46 16.75 38.45 13.49 38.43 C11.74 38.38 11.74 38.38 9.95 38.33 C4.11 38.24 4.11 38.24 -0.97 40.72 C-3.7 43.56 -3.7 43.56 -4.88 47.15 C-4.22 46.82 -3.56 46.49 -2.88 46.15 C-3.54 47.47 -4.2 48.79 -4.88 50.15 C-5.54 50.15 -6.2 50.15 -6.88 50.15 C-6.96 50.74 -7.04 51.34 -7.13 51.96 C-7.88 54.15 -7.88 54.15 -9.94 55.58 C-10.9 56.36 -10.9 56.36 -11.88 57.15 C-11.88 58.8 -11.88 60.45 -11.88 62.15 C20.13 62.15 52.14 62.15 85.12 62.15 C86.11 64.13 86.11 64.13 87.12 66.15 C85.75 68.15 85.75 68.15 84.12 70.15 C83.46 70.15 82.8 70.15 82.12 70.15 C82.04 70.72 81.96 71.3 81.87 71.9 C80.9 74.8 79.44 76.18 77.12 78.15 C76.46 78.15 75.8 78.15 75.12 78.15 C74.86 78.7 74.61 79.25 74.34 79.82 C72.94 82.49 71.33 84.91 69.62 87.4 C69.01 88.29 68.41 89.18 67.78 90.1 C66.96 91.11 66.96 91.11 66.12 92.15 C65.46 92.15 64.8 92.15 64.12 92.15 C63.69 93.04 63.69 93.04 63.25 93.96 C60.67 98.96 60.67 98.96 57.12 100.15 C54.91 100.23 52.7 100.25 50.5 100.24 C49.83 100.24 49.16 100.24 48.47 100.24 C47.02 100.23 45.57 100.23 44.12 100.22 C41.82 100.21 39.53 100.2 37.23 100.2 C31.54 100.18 25.84 100.16 20.14 100.13 C15.32 100.12 10.51 100.1 5.69 100.09 C3.43 100.08 1.17 100.07 -1.09 100.06 C-2.48 100.05 -3.87 100.05 -5.25 100.05 C-6.46 100.04 -7.67 100.04 -8.92 100.03 C-11.94 100.01 -11.94 100.01 -14.88 101.15 C-14.88 101.81 -14.88 102.47 -14.88 103.15 C-16.46 103.45 -16.46 103.45 -18.07 103.77 C-21.65 104.79 -23.26 106.4 -25.49 109.43 C-27.68 112.15 -30.35 114.28 -33.01 116.53 C-34.88 118.09 -34.88 118.09 -36.42 119.81 C-38.63 121.84 -40.98 121.82 -43.88 122.15 C-43.92 123.07 -43.96 124 -44 124.96 C-44.29 126.01 -44.58 127.06 -44.88 128.15 C-46.17 128.76 -46.17 128.76 -47.48 129.4 C-51.89 131.67 -54.74 134.76 -58.13 138.33 C-59.36 139.62 -60.59 140.91 -61.83 142.19 C-62.37 142.76 -62.91 143.32 -63.46 143.91 C-64.88 145.15 -64.88 145.15 -66.88 145.15 C-66.88 145.81 -66.88 146.47 -66.88 147.15 C-67.69 147.53 -67.69 147.53 -68.53 147.92 C-75.22 151.32 -79.85 155.76 -84.94 161.21 C-89.65 166.24 -93.61 170.34 -99.96 173.12 C-103.65 175.09 -106.31 178.29 -109.13 181.33 C-110.31 182.6 -111.51 183.87 -112.71 185.13 C-113.22 185.68 -113.74 186.24 -114.27 186.81 C-116.12 188.35 -117.54 188.67 -119.88 189.15 C-121.6 190.3 -121.6 190.3 -123.13 191.71 C-124.49 192.91 -124.49 192.91 -125.88 194.15 C-124.67 191.65 -123.42 189.46 -121.88 187.15 C-121.59 186.55 -121.3 185.95 -121 185.33 C-119.52 182.44 -117.7 179.83 -115.88 177.15 C-115.22 176.16 -114.56 175.17 -113.88 174.15 C-113.22 174.15 -112.56 174.15 -111.88 174.15 C-111.8 173.4 -111.71 172.66 -111.63 171.9 C-110.72 168.56 -109.31 167.56 -106.88 165.15 C-105.81 163.55 -104.8 161.92 -103.82 160.27 C-100.54 155 -96.88 150.19 -93.01 145.35 C-89.42 140.86 -86.01 136.28 -82.66 131.61 C-80.55 128.68 -78.37 125.81 -76.19 122.94 C-74.93 121.21 -73.77 119.45 -72.63 117.65 C-72.05 116.82 -71.47 116 -70.88 115.15 C-70.22 115.15 -69.56 115.15 -68.88 115.15 C-68.8 114.61 -68.71 114.07 -68.63 113.52 C-67.6 110.27 -65.91 107.86 -63.88 105.15 C-63.22 105.15 -62.56 105.15 -61.88 105.15 C-61.88 103.5 -61.88 101.85 -61.88 100.15 C-76.07 100.15 -90.26 100.15 -104.88 100.15 C-105.54 98.83 -106.2 97.51 -106.88 96.15 C-105.59 94.47 -104.3 92.81 -103 91.15 C-102.28 90.22 -101.56 89.29 -100.82 88.33 C-99.86 87.25 -99.86 87.25 -98.88 86.15 C-98.22 86.15 -97.56 86.15 -96.88 86.15 C-96.8 85.61 -96.71 85.07 -96.63 84.52 C-95.6 81.27 -93.91 78.86 -91.88 76.15 C-91.22 76.15 -90.56 76.15 -89.88 76.15 C-89.88 75.16 -89.88 74.17 -89.88 73.15 C-88.55 71.68 -88.55 71.68 -86.88 70.15 C-85.93 68.97 -85.01 67.77 -84.1 66.56 C-83.59 65.88 -83.07 65.19 -82.54 64.49 C-82.01 63.78 -81.49 63.07 -80.94 62.33 C-80.15 61.28 -80.15 61.28 -79.35 60.21 C-77 57.08 -74.72 53.94 -72.62 50.63 C-72.05 49.81 -71.47 48.99 -70.88 48.15 C-70.22 48.15 -69.56 48.15 -68.88 48.15 C-68.69 47.19 -68.69 47.19 -68.5 46.21 C-68.3 45.53 -68.09 44.85 -67.88 44.15 C-67.22 43.82 -66.56 43.49 -65.88 43.15 C-64.92 41.46 -63.96 39.77 -63.02 38.07 C-61.26 35.1 -59.22 32.68 -56.88 30.15 C-56.22 30.15 -55.56 30.15 -54.88 30.15 C-54.8 29.61 -54.71 29.07 -54.63 28.52 C-53.6 25.27 -51.91 22.86 -49.88 20.15 C-49.22 20.15 -48.56 20.15 -47.88 20.15 C-47.78 19.31 -47.78 19.31 -47.69 18.46 C-46.55 15.2 -44.32 13.59 -41.88 11.15 C-40.32 8.81 -38.84 6.44 -37.41 4.04 C-35.52 1.7 -34.79 1.67 -31.88 1.15 C-21.27 0.07 -10.65 -0 0 0 Z M4.12 37.15 C4.12 37.48 4.12 37.81 4.12 38.15 C20.62 38.15 37.12 38.15 54.12 38.15 C54.12 37.82 54.12 37.49 54.12 37.15 C37.62 37.15 21.12 37.15 4.12 37.15 Z M88.12 37.15 C92.12 38.15 92.12 38.15 92.12 38.15 Z M-8.88 46.15 C-9.21 46.81 -9.54 47.47 -9.88 48.15 C-9.22 48.15 -8.56 48.15 -7.88 48.15 C-8.21 47.49 -8.54 46.83 -8.88 46.15 Z M-10.88 49.15 C-10.22 49.81 -9.56 50.47 -8.88 51.15 C-8.88 50.49 -8.88 49.83 -8.88 49.15 C-9.54 49.15 -10.2 49.15 -10.88 49.15 Z M-11.88 52.15 C-10.88 55.15 -10.88 55.15 -10.88 55.15 Z M-13.88 54.15 C-12.88 56.15 -12.88 56.15 -12.88 56.15 Z M-14.88 56.15 C-14.88 57.8 -14.88 59.45 -14.88 61.15 C-14.55 61.15 -14.22 61.15 -13.88 61.15 C-13.88 59.5 -13.88 57.85 -13.88 56.15 C-14.21 56.15 -14.54 56.15 -14.88 56.15 Z M-102.88 98.15 C-102.88 98.48 -102.88 98.81 -102.88 99.15 C-89.68 99.15 -76.48 99.15 -62.88 99.15 C-62.88 98.82 -62.88 98.49 -62.88 98.15 C-76.08 98.15 -89.28 98.15 -102.88 98.15 Z M-95.88 167.15 C-96.54 167.81 -97.2 168.47 -97.88 169.15 C-96.56 168.82 -95.24 168.49 -93.88 168.15 C-94.54 167.82 -95.2 167.49 -95.88 167.15 Z M-116.88 184.15 C-115.88 186.15 -115.88 186.15 -115.88 186.15 Z " fill="#424344" transform="translate(127.877685546875,35.854736328125)"/>
<path d="M0 0 C1.08 -0 1.08 -0 2.19 -0 C4.63 -0.01 7.06 -0.01 9.5 -0 C11.24 -0 12.98 -0.01 14.72 -0.01 C19.46 -0.01 24.19 -0.01 28.93 -0.01 C33.88 -0 38.83 -0.01 43.78 -0.01 C52.09 -0.01 60.4 -0.01 68.72 -0 C78.34 0 87.96 0 97.58 -0.01 C105.83 -0.01 114.08 -0.01 122.33 -0.01 C127.26 -0.01 132.19 -0.01 137.12 -0.01 C141.76 -0.01 146.39 -0.01 151.03 -0 C152.74 -0 154.44 -0 156.15 -0.01 C158.47 -0.01 160.79 -0.01 163.11 0 C164.41 0 165.71 0 167.05 0 C170.05 0.13 170.05 0.13 172.05 1.13 C172.05 1.79 172.05 2.45 172.05 3.13 C172.98 3.07 173.91 3 174.87 2.94 C178.55 3.16 178.74 3.52 181.05 6.13 C182.02 6.56 182.99 6.99 183.99 7.44 C187.76 9.52 188.97 11.38 191.05 15.13 C191.56 18.36 191.56 18.36 191.57 21.88 C191.58 22.53 191.58 23.17 191.59 23.84 C191.61 25.96 191.6 28.07 191.58 30.19 C191.59 31.67 191.59 33.16 191.6 34.64 C191.6 37.74 191.59 40.83 191.57 43.93 C191.55 47.89 191.57 51.86 191.59 55.82 C191.6 58.88 191.6 61.93 191.59 64.99 C191.59 66.45 191.59 67.91 191.6 69.37 C191.61 71.42 191.59 73.46 191.57 75.5 C191.57 76.67 191.56 77.83 191.56 79.02 C190.58 85 185.94 88.43 181.28 91.84 C178.28 93.57 175.43 94.2 172.03 94.71 C169.75 95.06 169.75 95.06 167.05 97.13 C164.02 97.38 164.02 97.38 160.21 97.37 C159.51 97.38 158.82 97.38 158.09 97.38 C155.75 97.39 153.4 97.38 151.05 97.37 C149.37 97.37 147.68 97.37 146 97.38 C141.43 97.38 136.86 97.37 132.29 97.36 C127.51 97.35 122.73 97.36 117.95 97.36 C109.93 97.36 101.9 97.35 93.88 97.33 C84.59 97.32 75.3 97.31 66.02 97.31 C57.09 97.31 48.17 97.31 39.25 97.3 C35.45 97.3 31.64 97.29 27.84 97.29 C23.37 97.29 18.89 97.29 14.42 97.28 C12.77 97.27 11.13 97.27 9.48 97.27 C7.24 97.27 5 97.27 2.77 97.26 C1.51 97.26 0.25 97.26 -1.04 97.26 C-3.95 97.13 -3.95 97.13 -5.95 96.13 C-5.95 95.47 -5.95 94.81 -5.95 94.13 C-7.2 94.19 -8.46 94.25 -9.76 94.31 C-13.71 94.32 -13.71 94.32 -15.63 92.75 C-16.07 92.22 -16.5 91.68 -16.95 91.13 C-18.61 90.45 -20.27 89.78 -21.95 89.13 C-25.69 87.14 -26.91 84.6 -28.32 80.67 C-29.61 75.44 -29.37 70.08 -29.35 64.72 C-29.35 63.44 -29.35 62.16 -29.35 60.84 C-29.36 58.15 -29.35 55.45 -29.34 52.76 C-29.32 49.32 -29.33 45.88 -29.35 42.45 C-29.36 39.14 -29.35 35.84 -29.35 32.53 C-29.35 31.31 -29.36 30.08 -29.36 28.82 C-29.3 21.32 -28.91 15.07 -24.26 8.88 C-19.67 5.41 -14.88 2.38 -8.95 3.13 C-8.95 2.47 -8.95 1.81 -8.95 1.13 C-5.98 -0.36 -3.31 0 0 0 Z M35.05 28.13 C34.95 30.92 34.91 33.68 34.92 36.47 C34.92 37.3 34.92 38.14 34.92 39 C34.92 40.78 34.92 42.55 34.92 44.33 C34.93 47.05 34.92 49.77 34.92 52.49 C34.92 54.21 34.92 55.93 34.92 57.65 C34.92 58.47 34.92 59.29 34.91 60.13 C34.83 64.26 34.83 64.26 36.05 68.13 C47.88 68.17 59.71 68.21 71.54 68.23 C77.04 68.24 82.53 68.26 88.02 68.28 C93.32 68.3 98.62 68.31 103.92 68.32 C105.94 68.32 107.96 68.33 109.99 68.34 C112.82 68.35 115.64 68.35 118.47 68.35 C119.32 68.36 120.16 68.37 121.03 68.38 C125.51 68.55 125.51 68.55 129.05 66.13 C129.24 63.35 129.31 60.68 129.28 57.91 C129.28 57.09 129.28 56.28 129.28 55.44 C129.28 53.72 129.27 52 129.26 50.28 C129.24 47.64 129.24 45 129.24 42.36 C129.23 40.69 129.23 39.02 129.22 37.35 C129.22 36.55 129.22 35.76 129.22 34.94 C129.27 30.9 129.27 30.9 128.05 27.13 C116.08 27.1 104.1 27.09 92.12 27.08 C86.56 27.07 81 27.06 75.44 27.05 C70.07 27.04 64.71 27.03 59.35 27.03 C57.3 27.03 55.25 27.03 53.2 27.02 C50.34 27.01 47.47 27.01 44.61 27.01 C43.76 27.01 42.9 27.01 42.02 27 C38.23 26.64 38.23 26.64 35.05 28.13 Z " fill="#000102" transform="translate(357.9466552734375,37.873016357421875)"/>
<path d="M0 0 C1.62 0 1.62 0 3.28 0.01 C4.5 0.01 5.72 0.01 6.98 0.01 C8.32 0.01 9.66 0.02 11.01 0.02 C12.37 0.02 13.74 0.03 15.1 0.03 C18.71 0.03 22.31 0.04 25.91 0.05 C29.58 0.06 33.26 0.07 36.93 0.07 C44.14 0.08 51.35 0.1 58.56 0.12 C68.7 20.4 59.56 45.45 59.56 68.12 C110.38 68.12 161.2 68.12 213.56 68.12 C214.91 70.82 214.69 72.95 214.7 75.97 C214.7 77.13 214.7 78.29 214.7 79.49 C214.7 80.71 214.69 81.93 214.69 83.18 C214.69 84.41 214.7 85.63 214.7 86.89 C214.7 88.63 214.7 88.63 214.7 90.41 C214.7 91.48 214.69 92.55 214.69 93.65 C214.56 96.12 214.56 96.12 213.56 97.12 C211.06 97.22 208.59 97.26 206.09 97.25 C205.3 97.26 204.51 97.26 203.69 97.26 C201.02 97.27 198.35 97.27 195.67 97.27 C193.77 97.27 191.86 97.27 189.95 97.28 C184.75 97.28 179.55 97.29 174.35 97.29 C170.02 97.29 165.69 97.29 161.36 97.3 C151.14 97.3 140.93 97.31 130.71 97.31 C120.16 97.3 109.6 97.32 99.05 97.33 C90 97.34 80.95 97.35 71.9 97.35 C66.49 97.35 61.08 97.35 55.67 97.36 C50.59 97.37 45.5 97.37 40.41 97.36 C38.54 97.36 36.67 97.37 34.8 97.37 C32.25 97.38 29.71 97.38 27.16 97.37 C26.41 97.37 25.67 97.38 24.9 97.38 C19.79 97.35 19.79 97.35 17.56 95.12 C15.24 94.55 12.92 94.17 10.56 93.78 C9.57 93.45 9.57 93.45 8.56 93.12 C8.23 92.13 7.9 91.14 7.56 90.12 C6.84 90.06 6.12 90 5.38 89.93 C1.64 88.85 0.04 87.07 -2.44 84.12 C-3.84 80.36 -3.58 76.39 -3.57 72.43 C-3.57 71.66 -3.57 70.89 -3.57 70.1 C-3.58 67.56 -3.57 65.02 -3.57 62.48 C-3.57 60.72 -3.57 58.96 -3.57 57.19 C-3.57 53.5 -3.57 49.81 -3.57 46.12 C-3.56 41.38 -3.56 36.64 -3.57 31.9 C-3.57 28.26 -3.57 24.62 -3.57 20.98 C-3.57 19.23 -3.57 17.48 -3.57 15.73 C-3.57 13.3 -3.57 10.86 -3.57 8.42 C-3.57 7.69 -3.57 6.96 -3.57 6.21 C-3.55 0.18 -3.55 0.18 0 0 Z " fill="#000102" transform="translate(606.4360504150391,37.87974548339844)"/>
<path d="M0 0 C0.84 0 1.67 0 2.54 0.01 C3.42 0.01 4.3 0 5.21 0 C8.19 -0 11.17 0 14.15 0 C16.27 0 18.4 0 20.53 -0 C26.32 -0.01 32.11 -0 37.91 -0 C43.96 0 50 -0 56.05 -0 C66.21 -0 76.37 -0 86.53 0 C98.29 0.01 110.05 0.01 121.82 0 C131.9 -0 141.98 -0 152.06 -0 C158.09 0 164.12 0 170.14 -0 C175.81 -0.01 181.48 -0 187.14 0 C189.23 0 191.32 0 193.4 0 C196.24 -0 199.07 0 201.91 0.01 C202.75 0 203.58 0 204.44 0 C210.11 0.02 210.11 0.02 211.22 1.13 C211.31 2.99 211.33 4.84 211.32 6.7 C211.32 7.82 211.31 8.95 211.31 10.11 C211.3 11.29 211.29 12.48 211.28 13.7 C211.28 14.88 211.28 16.07 211.27 17.3 C211.26 20.24 211.24 23.19 211.22 26.13 C208.29 27.6 205.33 27.31 202.11 27.34 C201.38 27.35 200.65 27.36 199.89 27.37 C197.47 27.4 195.04 27.43 192.62 27.45 C190.94 27.47 189.26 27.49 187.58 27.51 C183.16 27.57 178.74 27.62 174.32 27.67 C169.81 27.72 165.3 27.77 160.78 27.83 C151.93 27.93 143.08 28.04 134.22 28.13 C134.21 28.98 134.2 29.83 134.19 30.71 C134.09 38.7 133.99 46.69 133.88 54.68 C133.83 58.79 133.77 62.9 133.72 67.01 C133.68 70.97 133.62 74.93 133.57 78.89 C133.55 80.41 133.53 81.92 133.51 83.43 C133.49 85.55 133.46 87.66 133.43 89.78 C133.41 90.98 133.4 92.19 133.38 93.43 C133.22 96.13 133.22 96.13 132.22 97.13 C130.36 97.23 128.49 97.26 126.62 97.26 C124.82 97.27 124.82 97.27 122.99 97.27 C121.68 97.27 120.38 97.27 119.03 97.27 C117.69 97.27 116.35 97.27 115.01 97.27 C112.2 97.27 109.38 97.27 106.57 97.26 C102.95 97.26 99.34 97.26 95.72 97.27 C92.95 97.27 90.18 97.27 87.41 97.27 C85.43 97.27 83.44 97.27 81.46 97.27 C80.26 97.27 79.06 97.27 77.83 97.26 C76.77 97.26 75.71 97.26 74.61 97.26 C72.22 97.13 72.22 97.13 71.22 96.13 C71.13 93.99 71.1 91.84 71.11 89.69 C71.11 89.01 71.11 88.34 71.11 87.65 C71.11 85.41 71.12 83.18 71.12 80.94 C71.13 79.4 71.13 77.85 71.13 76.31 C71.13 72.23 71.14 68.15 71.15 64.08 C71.16 59.92 71.17 55.77 71.17 51.61 C71.18 43.45 71.2 35.29 71.22 27.13 C69.8 27.14 69.8 27.14 68.35 27.15 C59.43 27.19 50.52 27.22 41.6 27.24 C37.01 27.25 32.43 27.26 27.84 27.28 C23.42 27.31 19 27.32 14.58 27.32 C12.89 27.33 11.2 27.33 9.51 27.35 C7.15 27.36 4.79 27.36 2.43 27.36 C1.72 27.37 1.02 27.38 0.29 27.38 C-4.55 27.36 -4.55 27.36 -6.78 25.13 C-7.02 22.72 -7.02 22.72 -7.01 19.72 C-7.01 18.65 -7 17.58 -7 16.48 C-6.99 15.35 -6.98 14.23 -6.97 13.07 C-6.96 11.94 -6.96 10.82 -6.96 9.66 C-6.91 0.02 -6.91 0.02 0 0 Z " fill="#000102" transform="translate(832.7778120040894,37.8662565946579)"/>
<path d="M0 0 C1.06 0 2.12 0 3.21 0 C5 -0 5 -0 6.84 -0.01 C8.79 0.01 8.79 0.01 10.77 0.02 C12.11 0.02 13.45 0.02 14.79 0.02 C17.6 0.02 20.41 0.03 23.22 0.04 C26.83 0.06 30.43 0.06 34.04 0.06 C36.81 0.06 39.57 0.07 42.34 0.07 C44.32 0.08 46.3 0.08 48.28 0.08 C50.07 0.09 50.07 0.09 51.9 0.1 C52.96 0.11 54.01 0.11 55.1 0.11 C57.49 0.25 57.49 0.25 58.49 1.25 C58.59 4.19 58.62 7.12 58.62 10.07 C58.62 10.99 58.62 11.92 58.62 12.87 C58.63 15.94 58.62 19.02 58.62 22.09 C58.62 24.22 58.62 26.34 58.62 28.47 C58.63 32.93 58.62 37.39 58.62 41.86 C58.61 47.59 58.62 53.32 58.62 59.06 C58.63 63.45 58.62 67.84 58.62 72.23 C58.62 74.35 58.62 76.46 58.62 78.58 C58.63 81.53 58.62 84.48 58.62 87.43 C58.62 88.31 58.62 89.2 58.62 90.11 C58.6 96.13 58.6 96.13 57.49 97.25 C55.63 97.35 53.76 97.39 51.9 97.39 C50.7 97.4 49.51 97.41 48.28 97.41 C46.98 97.41 45.68 97.41 44.34 97.42 C43 97.42 41.66 97.42 40.32 97.43 C37.51 97.43 34.7 97.43 31.89 97.43 C28.28 97.43 24.68 97.45 21.07 97.46 C18.3 97.47 15.54 97.48 12.77 97.48 C10.79 97.48 8.81 97.49 6.84 97.5 C5.64 97.5 4.44 97.49 3.21 97.49 C1.62 97.49 1.62 97.49 0 97.49 C-2.51 97.25 -2.51 97.25 -4.51 95.25 C-4.71 92.31 -4.78 89.46 -4.77 86.51 C-4.78 85.16 -4.78 85.16 -4.78 83.77 C-4.79 80.78 -4.78 77.78 -4.78 74.78 C-4.78 72.7 -4.78 70.62 -4.78 68.55 C-4.79 64.19 -4.78 59.83 -4.77 55.47 C-4.76 49.88 -4.77 44.28 -4.78 38.68 C-4.79 34.39 -4.78 30.1 -4.78 25.81 C-4.78 23.75 -4.78 21.68 -4.78 19.62 C-4.79 16.74 -4.78 13.86 -4.77 10.98 C-4.77 10.12 -4.78 9.26 -4.78 8.38 C-4.73 0.47 -4.73 0.47 0 0 Z " fill="#000102" transform="translate(1102.5116119384766,37.75276184082031)"/>
<path d="M0 0 C3.12 1.42 5.5 3.63 8.03 5.89 C12.59 9.87 17.23 13.61 22.09 17.2 C26.7 20.65 30.17 23.96 33.09 28.95 C31.99 31.75 31.05 32.99 28.66 34.89 C25.99 37.04 24.8 39.03 23.09 41.95 C22.43 41.95 21.77 41.95 21.09 41.95 C21.09 42.61 21.09 43.27 21.09 43.95 C20.04 44.16 18.99 44.37 17.91 44.58 C14.32 45.6 12.71 47.21 10.48 50.23 C8.29 52.95 5.62 55.09 2.96 57.34 C1.09 58.9 1.09 58.9 -0.45 60.62 C-2.66 62.64 -5 62.63 -7.91 62.95 C-7.95 63.88 -7.99 64.81 -8.03 65.77 C-8.32 66.82 -8.61 67.87 -8.91 68.95 C-9.76 69.37 -10.62 69.78 -11.51 70.2 C-15.92 72.47 -18.77 75.57 -22.16 79.14 C-23.39 80.43 -24.62 81.72 -25.86 83 C-26.4 83.56 -26.94 84.13 -27.49 84.72 C-28.91 85.95 -28.91 85.95 -30.91 85.95 C-30.91 86.61 -30.91 87.27 -30.91 87.95 C-31.72 88.34 -31.72 88.34 -32.56 88.73 C-39.25 92.12 -43.88 96.57 -48.97 102.02 C-53.68 107.05 -57.63 111.15 -63.98 113.93 C-67.68 115.9 -70.34 119.09 -73.16 122.14 C-74.34 123.41 -75.53 124.68 -76.73 125.93 C-77.25 126.49 -77.76 127.05 -78.29 127.62 C-80.15 129.16 -81.57 129.48 -83.91 129.95 C-85.63 131.11 -85.63 131.11 -87.16 132.52 C-88.52 133.72 -88.52 133.72 -89.91 134.95 C-88.7 132.46 -87.45 130.27 -85.91 127.95 C-85.62 127.36 -85.33 126.76 -85.03 126.14 C-83.55 123.25 -81.73 120.64 -79.91 117.95 C-79.25 116.96 -78.59 115.97 -77.91 114.95 C-77.25 114.95 -76.59 114.95 -75.91 114.95 C-75.82 114.21 -75.74 113.47 -75.66 112.7 C-74.75 109.37 -73.33 108.37 -70.91 105.95 C-69.84 104.36 -68.82 102.73 -67.84 101.08 C-64.57 95.8 -60.9 91 -57.04 86.16 C-53.45 81.67 -50.03 77.08 -46.68 72.42 C-44.57 69.49 -42.4 66.62 -40.22 63.75 C-38.96 62.02 -37.8 60.26 -36.66 58.45 C-36.08 57.63 -35.5 56.8 -34.91 55.95 C-34.25 55.95 -33.59 55.95 -32.91 55.95 C-32.82 55.42 -32.74 54.88 -32.66 54.33 C-31.63 51.08 -29.94 48.67 -27.91 45.95 C-27.25 45.95 -26.59 45.95 -25.91 45.95 C-25.91 44.3 -25.91 42.65 -25.91 40.95 C-40.1 40.95 -54.29 40.95 -68.91 40.95 C-68.91 39.96 -68.91 38.97 -68.91 37.95 C-68.25 37.95 -67.59 37.95 -66.91 37.95 C-66.91 38.61 -66.91 39.27 -66.91 39.95 C-65.92 39.46 -65.92 39.46 -64.91 38.95 C-65.4 36.48 -65.4 36.48 -65.91 33.95 C-64.26 33.95 -62.61 33.95 -60.91 33.95 C-61.11 33.33 -61.32 32.72 -61.53 32.08 C-61.66 31.38 -61.78 30.68 -61.91 29.95 C-61.25 29.29 -60.59 28.63 -59.91 27.95 C-59.25 28.94 -58.59 29.93 -57.91 30.95 C-54.23 30.28 -51.52 28.68 -48.34 26.77 C-43.39 23.81 -38.38 21.01 -33.28 18.31 C-30.88 17 -30.88 17 -28.73 15.32 C-26.77 13.85 -25.25 13.52 -22.91 12.95 C-22.58 12.29 -22.25 11.63 -21.91 10.95 C-20.24 10.29 -18.57 9.62 -16.91 8.95 C-16.58 8.29 -16.25 7.63 -15.91 6.95 C-14.24 6.28 -12.58 5.61 -10.91 4.95 C-8.62 3.62 -6.35 2.27 -4.09 0.88 C-1.91 -0.05 -1.91 -0.05 0 0 Z M-59.91 107.95 C-60.57 108.61 -61.23 109.27 -61.91 109.95 C-60.59 109.62 -59.27 109.29 -57.91 108.95 C-58.57 108.62 -59.23 108.29 -59.91 107.95 Z M-80.91 124.95 C-79.91 126.95 -79.91 126.95 -79.91 126.95 Z " fill="#747576" transform="translate(91.90625,95.046875)"/>
<path d="M0 0 C1.86 0.01 3.72 0.01 5.58 0.01 C10.07 0.02 14.57 0.04 19.06 0.06 C18.4 0.72 17.74 1.38 17.06 2.06 C18.05 2.72 19.04 3.38 20.06 4.06 C6.45 15.86 6.45 15.86 -0.61 21.23 C-3.54 23.54 -6.36 25.95 -9.19 28.38 C-13.52 32.09 -17.94 35.63 -22.5 39.06 C-26.98 42.46 -31.31 45.99 -35.5 49.75 C-36.93 51.02 -36.93 51.02 -38.38 52.32 C-40.45 54.54 -41.67 56.18 -43.09 58.78 C-45.27 62.66 -46.81 63.55 -50.94 65.06 C-53.81 65.75 -53.81 65.75 -55.94 66.06 C-56.43 67.55 -56.43 67.55 -56.94 69.06 C-59.41 69.56 -59.41 69.56 -61.94 70.06 C-62.43 71.55 -62.43 71.55 -62.94 73.06 C-65.2 74.07 -65.2 74.07 -67.94 75.06 C-69.54 75.97 -71.12 76.91 -72.69 77.88 C-76.66 80.3 -80.68 82.6 -84.77 84.82 C-87.66 86.47 -90.39 88.33 -93.11 90.24 C-95.47 91.3 -96.55 90.94 -98.94 90.06 C-99.6 89.73 -100.26 89.4 -100.94 89.06 C-100.61 90.38 -100.28 91.7 -99.94 93.06 C-102.94 94.06 -102.94 94.06 -105.94 93.06 C-105.61 94.71 -105.28 96.36 -104.94 98.06 C-106.59 98.06 -108.24 98.06 -109.94 98.06 C-109.94 94.3 -108.86 93.29 -106.56 90.38 C-105.62 89.16 -105.62 89.16 -104.66 87.93 C-103.81 87 -103.81 87 -102.94 86.06 C-102.28 86.06 -101.62 86.06 -100.94 86.06 C-100.86 85.53 -100.77 84.99 -100.69 84.44 C-99.66 81.19 -97.97 78.77 -95.94 76.06 C-95.28 76.06 -94.62 76.06 -93.94 76.06 C-93.94 75.07 -93.94 74.08 -93.94 73.06 C-92.61 71.6 -92.61 71.6 -90.94 70.06 C-89.99 68.89 -89.07 67.69 -88.16 66.48 C-87.65 65.8 -87.13 65.11 -86.6 64.4 C-86.07 63.69 -85.55 62.98 -85 62.25 C-84.47 61.55 -83.95 60.85 -83.41 60.13 C-81.06 56.99 -78.78 53.86 -76.68 50.55 C-76.11 49.73 -75.53 48.91 -74.94 48.06 C-74.28 48.06 -73.62 48.06 -72.94 48.06 C-72.75 47.1 -72.75 47.1 -72.56 46.12 C-72.36 45.44 -72.15 44.76 -71.94 44.06 C-71.28 43.73 -70.62 43.4 -69.94 43.06 C-68.98 41.37 -68.02 39.68 -67.08 37.98 C-65.32 35.02 -63.28 32.59 -60.94 30.06 C-60.28 30.06 -59.62 30.06 -58.94 30.06 C-58.85 29.53 -58.77 28.99 -58.69 28.44 C-57.66 25.19 -55.97 22.77 -53.94 20.06 C-53.28 20.06 -52.62 20.06 -51.94 20.06 C-51.84 19.23 -51.84 19.23 -51.75 18.38 C-50.61 15.12 -48.38 13.51 -45.94 11.06 C-44.38 8.73 -42.9 6.36 -41.46 3.95 C-39.11 1.03 -36.64 1.14 -33 0.75 C-22 -0.02 -11.03 -0.05 0 0 Z " fill="#1E1F20" transform="translate(131.9375,35.9375)"/>
<path d="M0 0 C31.68 0 63.36 0 96 0 C96.99 1.98 96.99 1.98 98 4 C96.62 6 96.62 6 95 8 C94.34 8 93.68 8 93 8 C92.92 8.58 92.83 9.16 92.75 9.75 C91.78 12.65 90.31 14.04 88 16 C87.34 16 86.68 16 86 16 C85.61 16.83 85.61 16.83 85.22 17.67 C83.82 20.34 82.21 22.77 80.5 25.25 C79.89 26.14 79.28 27.03 78.66 27.95 C78.11 28.63 77.56 29.3 77 30 C76.34 30 75.68 30 75 30 C74.71 30.6 74.42 31.2 74.12 31.81 C71.55 36.82 71.55 36.82 68 38 C65.81 38.09 63.61 38.12 61.42 38.11 C60.75 38.11 60.09 38.11 59.41 38.11 C57.21 38.11 55.02 38.11 52.83 38.1 C51.31 38.1 49.79 38.09 48.27 38.09 C44.27 38.09 40.27 38.08 36.27 38.07 C32.19 38.06 28.11 38.05 24.03 38.05 C16.02 38.04 8.01 38.02 0 38 C0.82 33.18 0.82 33.18 2.41 31.52 C2.96 31.14 3.5 30.77 4.06 30.38 C5.03 29.59 6 28.81 7 28 C7 27.01 7 26.02 7 25 C8.32 25 9.64 25 11 25 C13.61 22.81 13.61 22.81 16.19 19.94 C20.79 15.11 25.59 10.92 31 7 C30.67 6.01 30.34 5.02 30 4 C31.65 3.67 33.3 3.34 35 3 C27.3 2.11 19.62 1.71 11.88 1.44 C10.73 1.39 9.58 1.35 8.4 1.31 C5.6 1.2 2.8 1.1 0 1 C0 0.67 0 0.34 0 0 Z " fill="#1C1D1E" transform="translate(117,98)"/>
<path d="M0 0 C4.87 2.04 7.27 6.67 10 11 C10.56 11.56 11.11 12.11 11.69 12.69 C13 14 13 14 14 17 C14.66 17.33 15.32 17.66 16 18 C16.5 19.49 16.5 19.49 17 21 C17.52 21.5 18.03 21.99 18.56 22.5 C20 24 20 24 20 27 C21.32 27 22.64 27 24 27 C23.98 26.25 23.97 25.51 23.95 24.74 C23.89 21.37 23.85 18 23.81 14.62 C23.79 13.45 23.76 12.27 23.74 11.06 C23.73 9.94 23.72 8.82 23.71 7.66 C23.69 6.63 23.68 5.59 23.66 4.52 C23.83 3.27 23.83 3.27 24 2 C26.97 0.02 27.66 -0.29 31 -0.31 C31.68 -0.33 32.36 -0.35 33.06 -0.36 C35.61 0.12 36.38 0.99 38 3 C38.37 4.96 38.37 4.96 38.37 7.21 C38.38 8.48 38.38 8.48 38.39 9.77 C38.38 10.68 38.37 11.59 38.36 12.52 C38.36 13.93 38.36 13.93 38.36 15.37 C38.36 17.35 38.35 19.34 38.34 21.32 C38.31 24.36 38.32 27.39 38.32 30.42 C38.32 32.35 38.31 34.28 38.3 36.21 C38.3 37.57 38.3 37.57 38.3 38.95 C38.21 47.1 38.21 47.1 36 51 C33.41 52.3 31.4 52.2 28.5 52.25 C27.03 52.29 27.03 52.29 25.53 52.33 C24.7 52.22 23.86 52.11 23 52 C22.34 51.01 21.68 50.02 21 49 C20.01 48.67 19.02 48.34 18 48 C16.21 46.07 16.21 46.07 14.38 43.69 C13.76 42.91 13.15 42.13 12.52 41.32 C11.06 39.09 10.6 37.54 10 35 C8.38 33.29 6.71 31.62 5 30 C3 27 3 27 3 24 C2.01 23.67 1.02 23.34 0 23 C0 22.01 0 21.02 0 20 C-0.99 20 -1.98 20 -3 20 C-3.03 20.83 -3.05 21.66 -3.08 22.52 C-3.17 25.61 -3.27 28.71 -3.37 31.8 C-3.44 33.79 -3.5 35.79 -3.56 37.78 C-3.6 39.04 -3.64 40.29 -3.68 41.58 C-3.72 42.74 -3.76 43.9 -3.79 45.09 C-4 48 -4 48 -5 51 C-7.25 52.12 -8.51 52.13 -11 52.12 C-12.05 52.13 -12.05 52.13 -13.12 52.13 C-15 52 -15 52 -17 51 C-17.97 48.18 -18.13 45.52 -18.16 42.55 C-18.17 41.68 -18.18 40.81 -18.19 39.92 C-18.2 38.52 -18.2 38.52 -18.2 37.09 C-18.21 35.64 -18.21 35.64 -18.22 34.17 C-18.23 32.13 -18.24 30.1 -18.24 28.06 C-18.25 24.95 -18.28 21.83 -18.31 18.71 C-18.32 16.73 -18.32 14.75 -18.33 12.78 C-18.34 11.84 -18.35 10.91 -18.37 9.95 C-18.36 9.08 -18.36 8.21 -18.36 7.32 C-18.36 6.55 -18.36 5.79 -18.37 5 C-16.9 -2.98 -6.03 -0.69 0 0 Z " fill="#000102" transform="translate(653,175)"/>
<path d="M0 0 C5.54 4.91 7.6 9.38 8.31 16.73 C8.64 23.92 8.76 31.08 3.94 36.88 C2.02 38.72 0.07 40.27 -2.06 41.88 C-2.56 42.87 -2.56 42.87 -3.06 43.88 C-5.39 44.55 -7.73 45.22 -10.06 45.88 C-10.72 46.53 -11.38 47.19 -12.06 47.88 C-14.64 48.12 -14.64 48.12 -17.88 48.11 C-19.03 48.1 -20.19 48.1 -21.38 48.1 C-22.6 48.09 -23.81 48.08 -25.06 48.06 C-26.28 48.06 -27.49 48.06 -28.74 48.06 C-37.78 48.02 -37.78 48.02 -40.06 46.88 C-40.06 46.22 -40.06 45.56 -40.06 44.88 C-42.04 44.55 -44.02 44.22 -46.06 43.88 C-46.56 42.39 -46.56 42.39 -47.06 40.88 C-48.38 40.17 -49.71 39.51 -51.06 38.88 C-55.24 35.45 -55.41 31 -56.06 25.88 C-56.68 18.92 -55.68 13.34 -53.06 6.88 C-52.4 6.88 -51.74 6.88 -51.06 6.88 C-50.96 6.28 -50.87 5.68 -50.77 5.07 C-49.41 0.85 -45.81 -1.09 -42.06 -3.12 C-28.76 -7.73 -11.95 -8.46 0 0 Z M-38.06 10.88 C-39.08 13.66 -39.08 13.66 -39.06 16.88 C-39.1 17.58 -39.14 18.29 -39.18 19.01 C-39.34 23.95 -39 28.26 -37.06 32.88 C-34.79 34.72 -34.79 34.72 -32.06 35.88 C-31.24 36.43 -30.41 36.99 -29.56 37.56 C-26.69 39.07 -25.26 39.35 -22.06 38.88 C-19.51 37.59 -19.51 37.59 -17.06 35.88 C-15.76 35.19 -15.76 35.19 -14.44 34.5 C-11.56 32.53 -10.58 31.01 -9.06 27.88 C-8.59 24.47 -8.59 24.47 -8.69 20.88 C-8.68 19.68 -8.67 18.48 -8.66 17.25 C-9.2 12.75 -10.67 10.33 -13.76 7.09 C-17.08 5.34 -20.27 5.36 -23.94 5.38 C-24.63 5.35 -25.33 5.32 -26.04 5.29 C-31.84 5.27 -34.2 6.87 -38.06 10.88 Z " fill="#000102" transform="translate(923.0625,179.125)"/>
<path d="M0 0 C0.74 0.66 1.49 1.33 2.25 2.01 C2.95 2.63 3.65 3.25 4.38 3.88 C9.36 9.53 9.75 14.81 9.69 22.01 C9.72 23.32 9.72 23.32 9.75 24.66 C9.74 31.63 7.79 35.17 3.12 40.38 C1.25 42.01 1.25 42.01 -0.75 42.01 C-1.08 43 -1.41 43.99 -1.75 45.01 C-3.17 45.16 -3.17 45.16 -4.62 45.32 C-8.04 45.69 -8.04 45.69 -9.75 49.01 C-12.46 49.35 -12.46 49.35 -15.85 49.3 C-17.06 49.29 -18.27 49.28 -19.52 49.27 C-20.79 49.25 -22.07 49.22 -23.38 49.2 C-24.65 49.18 -25.93 49.17 -27.25 49.15 C-30.42 49.12 -33.58 49.07 -36.75 49.01 C-37.08 48.02 -37.41 47.03 -37.75 46.01 C-38.8 45.97 -39.85 45.93 -40.94 45.88 C-45.76 44.77 -46.91 42.95 -49.75 39.01 C-50.28 38.62 -50.8 38.22 -51.34 37.82 C-53.63 34.88 -53.38 31.47 -53.5 27.88 C-53.53 27.12 -53.56 26.35 -53.6 25.56 C-54.1 11.3 -54.1 11.3 -50.31 6.45 C-47.75 4.01 -47.75 4.01 -45.75 4.01 C-45.42 3.02 -45.09 2.03 -44.75 1.01 C-33.46 -7.28 -11.33 -8.21 0 0 Z M-35.75 12.01 C-37.44 15.38 -37.1 19.12 -37.19 22.82 C-37.23 23.63 -37.28 24.44 -37.33 25.27 C-37.46 29.75 -37.46 29.75 -35.49 33.63 C-31.51 36.99 -27.2 40.06 -21.88 39.95 C-14.79 37.82 -10.39 35.76 -6.75 29.01 C-5.87 23.63 -4.96 16.75 -8.07 11.99 C-9.84 10.5 -9.84 10.5 -12.75 9.01 C-13.08 8.35 -13.41 7.69 -13.75 7.01 C-16.29 6.87 -18.83 6.77 -21.38 6.7 C-22.44 6.63 -22.44 6.63 -23.54 6.57 C-29.31 6.44 -31.72 7.88 -35.75 12.01 Z " fill="#000102" transform="translate(772.75,177.9921875)"/>
<path d="M0 0 C3.05 0.48 6.1 0.9 9.15 1.3 C12.15 2.04 13.29 2.46 15 5 C15.45 7.76 15.18 10.18 15 13 C13.11 14.89 10.43 14.18 7.91 14.23 C6 14 6 14 4 12 C1.77 11.63 1.77 11.63 -0.79 11.59 C-2.2 11.53 -2.2 11.53 -3.64 11.47 C-4.63 11.44 -5.61 11.41 -6.62 11.38 C-7.62 11.34 -8.61 11.3 -9.63 11.26 C-12.09 11.16 -14.54 11.08 -17 11 C-17.33 11.99 -17.66 12.98 -18 14 C-18.62 14.29 -19.24 14.58 -19.88 14.88 C-22.67 16.35 -23.44 18.31 -25 21 C-25.66 21 -26.32 21 -27 21 C-26.67 24.96 -26.34 28.92 -26 33 C-25.34 33 -24.68 33 -24 33 C-23.65 33.74 -23.3 34.49 -22.94 35.25 C-19.44 40.21 -13.92 41.56 -8.19 42.88 C-4.73 43.27 -4.73 43.27 -1 41 C-1 38.03 -1 35.06 -1 32 C-1.84 32.02 -2.69 32.05 -3.55 32.07 C-5.2 32.1 -5.2 32.1 -6.88 32.12 C-7.97 32.15 -9.06 32.17 -10.18 32.2 C-13 32 -13 32 -15 30 C-15.19 26.94 -15.19 26.94 -15 24 C-13.17 22.17 -10.27 22.87 -7.81 22.87 C-6.56 22.87 -5.3 22.86 -4.01 22.86 C-3.35 22.87 -2.69 22.87 -2.02 22.87 C-0.01 22.87 2 22.87 4.01 22.86 C5.26 22.86 6.52 22.87 7.81 22.87 C8.97 22.87 10.14 22.87 11.33 22.87 C14 23 14 23 15 24 C15.42 27.91 15.46 31.83 15.56 35.75 C15.63 36.85 15.69 37.95 15.75 39.08 C15.9 46.71 15.9 46.71 13.7 49.86 C7.56 54.51 -0.44 53.66 -7.75 53.5 C-9.06 53.5 -10.38 53.51 -11.73 53.51 C-21.93 53.4 -21.93 53.4 -26 50 C-27.45 49.85 -27.45 49.85 -28.94 49.69 C-33.21 48.73 -34.45 46.45 -37 43 C-37.6 42.48 -38.2 41.97 -38.81 41.44 C-40.54 39.34 -40.21 37.62 -40 35 C-40.99 34.67 -41.98 34.34 -43 34 C-43.05 31.71 -43.09 29.42 -43.12 27.12 C-43.15 25.85 -43.17 24.57 -43.2 23.26 C-43 20 -43 20 -41 18 C-40.71 17.05 -40.42 16.1 -40.12 15.12 C-38.92 11.78 -37.74 10.23 -35 8 C-34.34 8 -33.68 8 -33 8 C-32.67 7.01 -32.34 6.02 -32 5 C-24.25 0.04 -8.66 -4.33 0 0 Z " fill="#000102" transform="translate(997,174)"/>
<path d="M0 0 C1.15 -0.01 1.15 -0.01 2.32 -0.02 C4.44 0.25 4.44 0.25 7.44 2.25 C7.66 5.06 7.72 7.58 7.62 10.38 C7.56 12.97 7.5 15.57 7.44 18.25 C14.7 18.25 21.96 18.25 29.44 18.25 C29.32 13.07 29.32 13.07 29.17 7.9 C29.15 6.01 29.29 4.13 29.44 2.25 C33.11 -0.2 36.17 -0.28 40.44 0.25 C42.11 0.9 43.78 1.56 45.44 2.25 C45.54 8.73 45.61 15.21 45.66 21.68 C45.68 23.89 45.7 26.09 45.74 28.29 C45.79 31.46 45.81 34.63 45.83 37.8 C45.85 38.78 45.87 39.77 45.89 40.78 C45.89 47.61 45.89 47.61 43.56 50.88 C41.07 52.49 39.75 52.7 36.81 52.56 C36.04 52.54 35.26 52.51 34.46 52.49 C32.44 52.25 32.44 52.25 30.44 51.25 C29.54 48.54 29.32 47.01 29.34 44.24 C29.34 43.56 29.34 42.87 29.35 42.17 C29.36 41.31 29.37 40.45 29.38 39.56 C29.4 36.82 29.42 34.08 29.44 31.25 C22.18 31.25 14.92 31.25 7.44 31.25 C7.56 37.04 7.56 37.04 7.71 42.83 C7.72 43.55 7.72 44.27 7.73 45.02 C7.75 45.76 7.76 46.5 7.78 47.26 C7.34 49.81 6.45 50.68 4.44 52.25 C2.32 52.65 2.32 52.65 0 52.62 C-1.14 52.64 -1.14 52.64 -2.31 52.65 C-5.17 52.14 -6.45 51.23 -8.56 49.25 C-9.04 47.1 -9.04 47.1 -9.02 44.59 C-9.02 43.65 -9.02 42.71 -9.02 41.74 C-9 40.73 -8.97 39.72 -8.95 38.68 C-8.95 37.64 -8.94 36.6 -8.94 35.53 C-8.91 32.21 -8.86 28.88 -8.81 25.56 C-8.79 23.31 -8.77 21.06 -8.76 18.81 C-8.71 13.29 -8.65 7.77 -8.56 2.25 C-5.52 0.64 -3.47 -0.02 0 0 Z " fill="#000102" transform="translate(559.5625,174.75)"/>
<path d="M0 0 C4.06 -0.05 8.11 -0.09 12.17 -0.11 C13.55 -0.12 14.93 -0.13 16.31 -0.15 C18.29 -0.18 20.28 -0.19 22.27 -0.2 C23.46 -0.21 24.65 -0.22 25.88 -0.23 C29.24 0.02 31.59 0.59 34 3 C34.33 3.99 34.66 4.98 35 6 C33.19 8.69 33.19 8.69 31 11 C30.34 11 29.68 11 29 11 C28.67 12.32 28.34 13.64 28 15 C27.34 15 26.68 15 26 15 C25.63 16.08 25.63 16.08 25.25 17.19 C23.88 20.28 22.28 22.51 20 25 C19.34 25 18.68 25 18 25 C17.67 26.32 17.34 27.64 17 29 C16.34 29 15.68 29 15 29 C14.63 30.08 14.63 30.08 14.25 31.19 C12.72 34.62 11.86 36.47 9 39 C5.03 39.76 1.1 39.63 -2.93 39.57 C-4.15 39.57 -5.37 39.57 -6.63 39.57 C-9.97 39.57 -13.31 39.54 -16.65 39.51 C-20.14 39.48 -23.63 39.47 -27.12 39.47 C-33.74 39.45 -40.35 39.41 -46.96 39.36 C-54.49 39.3 -62.02 39.28 -69.55 39.25 C-85.03 39.2 -100.52 39.11 -116 39 C-116 38.67 -116 38.34 -116 38 C-99.5 38 -83 38 -66 38 C-66 37.34 -66 36.68 -66 36 C-56.43 35.67 -46.86 35.34 -37 35 C-36.67 33.35 -36.34 31.7 -36 30 C-34.04 28.02 -32.17 26.34 -30 24.62 C-29.41 24.14 -28.83 23.66 -28.22 23.17 C-24.87 20.44 -21.45 17.8 -18 15.19 C-13.83 11.99 -9.94 8.74 -8.19 3.62 C-8.09 2.82 -8.09 2.82 -8 2 C-5.36 2 -2.72 2 0 2 C0 1.34 0 0.68 0 0 Z M-32 37 C-28 38 -28 38 -28 38 Z " fill="#1F2021" transform="translate(248,36)"/>
<path d="M0 0 C3.12 1.42 5.5 3.63 8.03 5.89 C12.59 9.87 17.23 13.61 22.09 17.2 C26.7 20.65 30.17 23.96 33.09 28.95 C31.99 31.75 31.05 32.99 28.66 34.89 C25.99 37.04 24.8 39.03 23.09 41.95 C22.43 41.95 21.77 41.95 21.09 41.95 C21.09 42.61 21.09 43.27 21.09 43.95 C20.04 44.16 18.99 44.37 17.91 44.58 C14.33 45.6 12.72 47.2 10.48 50.23 C7.46 53.99 3.43 57.78 -0.91 59.95 C0.51 56.61 2.16 54.84 4.97 52.58 C8.46 49.64 10.79 46.88 13.09 42.95 C12.28 43.68 12.28 43.68 11.45 44.41 C10.73 45.05 10.02 45.68 9.28 46.33 C8.57 46.95 7.87 47.58 7.14 48.23 C5.09 49.95 5.09 49.95 2.09 51.95 C1.75 51.5 1.41 51.05 1.05 50.59 C-2.71 45.96 -6.81 42.3 -11.53 38.7 C-16.61 34.82 -21.46 30.79 -26.16 26.45 C-26.98 25.7 -26.98 25.7 -27.82 24.92 C-30.19 22.7 -32.09 20.67 -33.91 17.95 C-31 16.47 -28.15 15.05 -25.09 13.89 C-22.74 13.16 -22.74 13.16 -21.91 10.95 C-20.24 10.29 -18.57 9.62 -16.91 8.95 C-16.58 8.29 -16.25 7.63 -15.91 6.95 C-14.24 6.28 -12.58 5.61 -10.91 4.95 C-8.62 3.62 -6.35 2.27 -4.09 0.88 C-1.91 -0.05 -1.91 -0.05 0 0 Z " fill="#B0B1B3" transform="translate(91.90625,95.046875)"/>
<path d="M0 0 C1.19 -0 1.19 -0 2.39 -0.01 C4.06 -0.01 5.73 -0 7.4 0 C9.96 0.02 12.52 0 15.08 -0.01 C16.7 -0.01 18.32 -0 19.94 0 C20.71 -0 21.47 -0.01 22.26 -0.01 C27.67 0.04 27.67 0.04 29.9 2.27 C30.15 5.27 30.15 5.27 29.9 8.27 C27.9 10.27 27.9 10.27 25.56 10.49 C24.61 10.48 23.66 10.47 22.68 10.46 C21.13 10.45 21.13 10.45 19.55 10.44 C18.47 10.42 17.39 10.41 16.28 10.39 C15.19 10.38 14.1 10.37 12.98 10.36 C10.29 10.34 7.6 10.31 4.9 10.27 C4.9 12.91 4.9 15.55 4.9 18.27 C5.5 18.26 6.1 18.26 6.72 18.25 C9.43 18.23 12.13 18.22 14.84 18.2 C15.79 18.19 16.73 18.19 17.71 18.18 C19.05 18.17 19.05 18.17 20.43 18.17 C21.68 18.16 21.68 18.16 22.95 18.15 C24.9 18.27 24.9 18.27 25.9 19.27 C26.04 21.08 26.04 21.08 26.03 23.27 C26.03 24.35 26.03 24.35 26.04 25.45 C25.9 27.27 25.9 27.27 24.9 28.27 C23.49 28.35 22.07 28.37 20.65 28.36 C19.79 28.36 18.94 28.36 18.06 28.35 C16.71 28.34 16.71 28.34 15.34 28.33 C14.44 28.32 13.54 28.32 12.61 28.31 C10.37 28.3 8.14 28.28 5.9 28.27 C5.57 31.9 5.24 35.53 4.9 39.27 C6.54 39.24 8.18 39.22 9.86 39.2 C12 39.18 14.14 39.16 16.28 39.14 C17.36 39.12 18.44 39.11 19.55 39.09 C20.58 39.08 21.61 39.08 22.68 39.07 C24.11 39.05 24.11 39.05 25.56 39.04 C27.9 39.27 27.9 39.27 29.9 41.27 C30.17 43.36 30.17 43.36 30.15 45.77 C30.16 46.96 30.16 46.96 30.17 48.17 C29.9 50.27 29.9 50.27 27.9 52.27 C25.3 52.49 22.8 52.59 20.19 52.6 C19.43 52.61 18.66 52.61 17.87 52.62 C16.26 52.63 14.64 52.64 13.02 52.64 C10.54 52.64 8.07 52.68 5.6 52.71 C4.02 52.72 2.45 52.72 0.88 52.73 C-0.23 52.75 -0.23 52.75 -1.36 52.77 C-4.53 52.74 -6.78 52.44 -9.57 50.89 C-12 46.72 -11.65 42.63 -11.59 37.88 C-11.6 36.37 -11.6 36.37 -11.6 34.82 C-11.6 32.69 -11.58 30.55 -11.56 28.42 C-11.54 25.15 -11.54 21.87 -11.56 18.6 C-11.55 16.53 -11.54 14.45 -11.53 12.38 C-11.54 10.91 -11.54 10.91 -11.54 9.4 C-11.53 8.5 -11.51 7.59 -11.5 6.65 C-11.5 5.85 -11.49 5.05 -11.49 4.23 C-11.36 3.58 -11.23 2.93 -11.1 2.27 C-7.34 -0.24 -4.36 -0.02 0 0 Z " fill="#000102" transform="translate(1099.09765625,174.734375)"/>
<path d="M0 0 C1.08 -0 1.08 -0 2.18 -0.01 C3.69 -0.01 5.2 -0.01 6.71 0.01 C9.02 0.02 11.34 0.01 13.65 -0.01 C15.12 -0.01 16.59 -0.01 18.06 0 C19.1 -0.01 19.1 -0.01 20.16 -0.02 C23.02 0.02 24.96 0.1 27.37 1.73 C28.4 3.4 28.4 3.4 28.21 6.52 C27.94 7.47 27.67 8.42 27.4 9.4 C24.84 10.68 23.03 10.51 20.17 10.5 C19.14 10.49 18.11 10.49 17.05 10.49 C15.43 10.47 15.43 10.47 13.77 10.46 C12.14 10.45 12.14 10.45 10.48 10.45 C7.78 10.44 5.09 10.42 2.4 10.4 C2.4 13.04 2.4 15.68 2.4 18.4 C3.29 18.38 3.29 18.38 4.2 18.37 C6.89 18.33 9.58 18.3 12.27 18.27 C13.21 18.26 14.15 18.24 15.11 18.22 C16.46 18.21 16.46 18.21 17.83 18.2 C18.66 18.19 19.48 18.18 20.34 18.17 C22.4 18.4 22.4 18.4 24.4 20.4 C23.82 26.98 23.82 26.98 22.4 28.4 C20.98 28.48 19.56 28.51 18.14 28.5 C17.29 28.49 16.44 28.49 15.56 28.49 C14.21 28.47 14.21 28.47 12.84 28.46 C11.93 28.46 11.03 28.45 10.1 28.45 C7.87 28.44 5.63 28.42 3.4 28.4 C3.07 32.03 2.74 35.66 2.4 39.4 C4.04 39.39 5.67 39.38 7.36 39.36 C9.5 39.35 11.64 39.34 13.77 39.34 C14.85 39.33 15.93 39.32 17.05 39.31 C18.08 39.31 19.11 39.3 20.17 39.3 C21.12 39.3 22.08 39.29 23.06 39.28 C25.4 39.4 25.4 39.4 27.4 40.4 C29.79 46.32 29.79 46.32 28.43 50.09 C26.4 52.4 26.4 52.4 22.91 53.05 C21.47 53.08 20.03 53.08 18.59 53.06 C17.83 53.07 17.06 53.07 16.28 53.08 C14.66 53.08 13.05 53.07 11.44 53.05 C8.97 53.02 6.51 53.05 4.04 53.08 C2.48 53.08 0.91 53.07 -0.66 53.06 C-1.76 53.08 -1.76 53.08 -2.89 53.09 C-6.36 53.01 -8.3 52.64 -11.06 50.48 C-13.25 46.09 -13.19 42.24 -13.17 37.39 C-13.17 36.43 -13.18 35.47 -13.19 34.47 C-13.19 32.45 -13.19 30.42 -13.18 28.39 C-13.16 25.28 -13.2 22.17 -13.24 19.06 C-13.24 17.09 -13.24 15.11 -13.23 13.14 C-13.24 12.21 -13.26 11.28 -13.27 10.32 C-13.18 3.98 -13.18 3.98 -10.54 1.31 C-6.98 0.2 -3.69 -0.03 0 0 Z " fill="#000102" transform="translate(422.6015625,174.6015625)"/>
<path d="M0 0 C1.17 3.52 1.2 6.31 1 10 C0.34 10.66 -0.32 11.32 -1 12 C-4.12 11.62 -4.12 11.62 -7 11 C-7 10.34 -7 9.68 -7 9 C-11.62 9 -16.24 9 -21 9 C-22.43 12.73 -22.43 12.73 -21 14.69 C-18.17 16.55 -15.33 16.53 -12 17 C-10.64 17.96 -9.3 18.96 -8 20 C-7.17 20.14 -6.35 20.29 -5.5 20.44 C-2.3 21.16 -1.05 22.49 1 25 C1 25.66 1 26.32 1 27 C1.99 27.33 2.98 27.66 4 28 C4.86 40.88 4.86 40.88 1.88 44.69 C-1.09 47.07 -3.35 48.03 -7 49 C-7.66 49.66 -8.32 50.32 -9 51 C-12.87 51.51 -16.78 51.42 -20.69 51.44 C-21.76 51.47 -22.84 51.5 -23.95 51.54 C-30.94 51.58 -34.93 50.98 -40 46 C-40.44 42.19 -40.44 42.19 -40 39 C-36.56 37.28 -32.77 37.61 -29 38 C-26.25 39.5 -26.25 39.5 -24 41 C-19.71 41.64 -17.56 40.31 -14 38 C-13.34 38 -12.68 38 -12 38 C-12.28 36.06 -12.28 36.06 -13 34 C-13.99 33.34 -14.98 32.68 -16 32 C-16 31.34 -16 30.68 -16 30 C-16.63 29.95 -17.25 29.9 -17.9 29.85 C-18.72 29.78 -19.53 29.7 -20.38 29.62 C-21.19 29.56 -22 29.49 -22.84 29.41 C-25 29 -25 29 -27 27 C-28.98 26.29 -30.98 25.61 -33 25 C-33 24.34 -33 23.68 -33 23 C-33.9 22.69 -33.9 22.69 -34.81 22.38 C-37.93 20.41 -38.75 18.43 -40 15 C-39.9 10.02 -38.05 6.88 -35 3 C-34.34 3 -33.68 3 -33 3 C-32.67 2.01 -32.34 1.02 -32 0 C-21.36 -4.14 -10.64 -4.14 0 0 Z " fill="#000102" transform="translate(1192,176)"/>
<path d="M0 0 C3.01 2.6 3.83 3.8 4.38 7.69 C4 10 4 10 2 12 C-1 12.25 -1 12.25 -4 12 C-4.66 11.34 -5.32 10.68 -6 10 C-8.73 9.69 -11.38 9.49 -14.12 9.38 C-14.88 9.34 -15.63 9.3 -16.41 9.26 C-18.27 9.16 -20.14 9.08 -22 9 C-22.33 9.99 -22.66 10.98 -23 12 C-23.66 12 -24.32 12 -25 12 C-25.33 12.99 -25.66 13.98 -26 15 C-26.66 15 -27.32 15 -28 15 C-28 21.6 -28 28.2 -28 35 C-26.51 35.5 -26.51 35.5 -25 36 C-25 36.66 -25 37.32 -25 38 C-23.36 38.19 -23.36 38.19 -21.69 38.38 C-18 39 -18 39 -15 41 C-12.38 40.73 -10.47 40.27 -8.19 38.94 C-4.68 37.43 -1.8 37.69 2 38 C4 41 4 41 3.62 44.19 C3.42 45.12 3.21 46.04 3 47 C1.02 47.5 1.02 47.5 -1 48 C-1 48.66 -1 49.32 -1 50 C-5.23 52.11 -10.79 51.23 -15.44 51.25 C-16.6 51.27 -17.75 51.29 -18.95 51.31 C-20.61 51.32 -20.61 51.32 -22.31 51.33 C-23.84 51.34 -23.84 51.34 -25.4 51.36 C-28.42 50.94 -29.06 50.24 -31 48 C-31.95 47.71 -32.9 47.42 -33.88 47.12 C-39.28 45.18 -42.52 41.07 -45 36 C-47.91 27.23 -47.22 19.66 -44 11 C-43.34 10.67 -42.68 10.34 -42 10 C-41.67 9.01 -41.34 8.02 -41 7 C-30.33 -4.4 -13.97 -5.09 0 0 Z " fill="#000102" transform="translate(521,176)"/>
<path d="M0 0 C1.22 0.01 1.22 0.01 2.46 0.01 C3.38 0.01 4.3 0.01 5.25 0.01 C6.25 0.02 7.24 0.03 8.27 0.05 C9.29 0.05 10.31 0.05 11.36 0.05 C14.62 0.06 17.88 0.09 21.14 0.12 C23.35 0.13 25.55 0.13 27.76 0.14 C33.18 0.16 38.6 0.2 44.01 0.24 C44.01 0.9 44.01 1.56 44.01 2.24 C41.37 2.24 38.73 2.24 36.01 2.24 C36.01 3.07 36.01 3.89 36.01 4.74 C33.57 13.3 24.03 18.71 17.16 23.85 C11.17 27.91 11.17 27.91 7.14 33.55 C7.1 34.11 7.06 34.67 7.01 35.24 C8.66 35.24 10.31 35.24 12.01 35.24 C12.01 35.57 12.01 35.9 12.01 36.24 C7.91 36.27 3.8 36.29 -0.3 36.3 C-1.47 36.31 -2.63 36.32 -3.84 36.33 C-4.95 36.33 -6.07 36.33 -7.23 36.34 C-8.77 36.35 -8.77 36.35 -10.35 36.35 C-12.99 36.24 -12.99 36.24 -15.99 35.24 C-17.47 35.16 -18.95 35.13 -20.44 35.14 C-21.28 35.15 -22.13 35.15 -23 35.15 C-23.89 35.16 -24.77 35.17 -25.67 35.18 C-27.01 35.18 -27.01 35.18 -28.38 35.19 C-30.58 35.2 -32.78 35.22 -34.99 35.24 C-34 34.75 -34 34.75 -32.99 34.24 C-32.71 33.64 -32.44 33.05 -32.16 32.43 C-30.63 29.58 -28.72 28.17 -26.17 26.18 C-25.2 25.4 -24.22 24.62 -23.21 23.81 C-22.43 23.19 -22.43 23.19 -21.63 22.55 C-18.76 20.26 -15.93 17.91 -13.11 15.55 C-12.58 15.11 -12.04 14.67 -11.49 14.22 C-7.85 11.17 -4.93 7.94 -1.99 4.24 C-2.65 3.58 -3.31 2.92 -3.99 2.24 C-1.99 0.24 -1.99 0.24 0 0 Z " fill="#404142" transform="translate(203.98684692382813,35.759490966796875)"/>
<path d="M0 0 C1.24 0 1.24 0 2.5 0 C3.43 0 4.37 -0 5.33 -0.01 C6.34 0 7.35 0.01 8.39 0.02 C9.43 0.02 10.47 0.02 11.53 0.02 C13.73 0.02 15.92 0.03 18.11 0.04 C21.47 0.06 24.84 0.06 28.2 0.06 C30.33 0.07 32.46 0.07 34.58 0.08 C35.59 0.08 36.61 0.08 37.65 0.08 C38.58 0.09 39.52 0.1 40.48 0.1 C41.3 0.11 42.13 0.11 42.98 0.11 C44.99 0.25 44.99 0.25 46.99 1.25 C46.99 3.89 46.99 6.53 46.99 9.25 C43.92 10.78 40.72 10.35 37.36 10.31 C36.66 10.31 35.95 10.3 35.22 10.3 C33.48 10.28 31.73 10.27 29.99 10.25 C30.01 11.38 30.03 12.51 30.05 13.67 C30.12 17.87 30.17 22.07 30.21 26.26 C30.23 28.08 30.26 29.89 30.29 31.71 C30.34 34.32 30.36 36.93 30.38 39.54 C30.4 40.35 30.42 41.17 30.44 42 C30.44 45.66 30.33 47.79 28.11 50.76 C25.64 52.49 24.4 52.73 21.43 52.62 C20.66 52.61 19.9 52.6 19.11 52.58 C16.99 52.25 16.99 52.25 13.99 50.25 C13.72 47.2 13.64 44.35 13.7 41.3 C13.7 40.42 13.7 39.53 13.71 38.62 C13.73 35.79 13.76 32.95 13.8 30.12 C13.82 28.2 13.83 26.29 13.84 24.37 C13.88 19.66 13.93 14.95 13.99 10.25 C12.29 10.26 12.29 10.26 10.56 10.28 C9.08 10.29 7.6 10.3 6.11 10.31 C5.37 10.32 4.62 10.33 3.85 10.34 C-1.78 10.36 -1.78 10.36 -4.01 9.25 C-4.14 5.87 -4.14 5.87 -4.01 2.25 C-2.01 0.25 -2.01 0.25 0 0 Z " fill="#000102" transform="translate(339.0113525390625,174.7527618408203)"/>
<path d="M0 0 C0.97 -0.01 1.94 -0.03 2.93 -0.04 C5.56 0.19 5.56 0.19 8.56 2.19 C8.83 5.02 8.91 7.64 8.86 10.48 C8.85 11.29 8.85 12.11 8.84 12.96 C8.83 15.58 8.79 18.19 8.75 20.81 C8.73 22.59 8.72 24.36 8.71 26.13 C8.68 30.48 8.62 34.84 8.56 39.19 C9.13 39.18 9.69 39.18 10.27 39.17 C12.83 39.15 15.38 39.14 17.94 39.12 C19.27 39.11 19.27 39.11 20.63 39.1 C21.91 39.09 21.91 39.09 23.21 39.09 C24 39.08 24.78 39.08 25.59 39.07 C27.56 39.19 27.56 39.19 29.56 40.19 C30.75 45.34 30.6 47.09 28.56 52.19 C18 52.19 7.44 52.19 -3.44 52.19 C-3.93 50.7 -3.93 50.7 -4.44 49.19 C-5.43 48.86 -6.42 48.53 -7.44 48.19 C-7.44 32.68 -7.44 17.17 -7.44 1.19 C-4.85 -0.11 -2.89 0.02 0 0 Z " fill="#000102" transform="translate(816.4375,174.8125)"/>
<path d="M0 0 C0.66 1.32 1.32 2.64 2 4 C3.65 3.34 5.3 2.68 7 2 C6.34 3.32 5.68 4.64 5 6 C4.34 6 3.68 6 3 6 C2.92 6.6 2.84 7.2 2.75 7.81 C1.8 10.6 0.43 11.43 -2 13 C-1.67 14.65 -1.34 16.3 -1 18 C11.54 18.66 24.08 19.32 37 20 C33.77 22.15 32.72 22.2 29 22 C29 22.66 29 23.32 29 24 C29.99 24.33 30.98 24.66 32 25 C31.54 25.33 31.08 25.66 30.6 26 C25.56 29.67 20.94 33.67 16.34 37.88 C13.63 40.34 10.84 42.68 8 45 C8 44.34 8 43.68 8 43 C7.42 42.77 6.84 42.55 6.25 42.31 C4 41 4 41 2.24 38.71 C-0.23 35.73 -2.97 33.53 -6.06 31.25 C-7.21 30.38 -8.37 29.51 -9.52 28.63 C-10.09 28.2 -10.67 27.76 -11.27 27.31 C-13.97 25.27 -16.65 23.21 -19.31 21.12 C-20.22 20.43 -21.12 19.73 -22.05 19.01 C-24 17 -24 17 -24 13 C-21.73 11.25 -21.73 11.25 -18.62 9.56 C-17.54 8.96 -16.45 8.36 -15.33 7.75 C-10.92 5.43 -6.49 3.16 -2 1 C-1.34 0.67 -0.68 0.34 0 0 Z M-1 5 C-0.34 5.66 0.32 6.32 1 7 C1 6.34 1 5.68 1 5 C0.34 5 -0.32 5 -1 5 Z M-2 8 C-1 11 -1 11 -1 11 Z M-4 10 C-3 12 -3 12 -3 12 Z M-5 12 C-5 13.65 -5 15.3 -5 17 C-4.67 17 -4.34 17 -4 17 C-4 15.35 -4 13.7 -4 12 C-4.33 12 -4.66 12 -5 12 Z " fill="#737475" transform="translate(118,80)"/>
<path d="M0 0 C11.55 0 23.1 0 35 0 C35 0.33 35 0.66 35 1 C34.25 1 33.5 1.01 32.73 1.01 C31.75 1.05 30.76 1.09 29.75 1.12 C28.78 1.15 27.8 1.17 26.8 1.2 C22.83 2.34 22.11 4.53 20 8 C18.2 9.83 16.34 11.6 14.44 13.31 C13.92 13.78 13.4 14.25 12.86 14.74 C8.52 18.62 4.03 22.31 -0.53 25.93 C-3.18 28.15 -5.59 30.52 -8 33 C-6.81 32.98 -5.62 32.95 -4.39 32.93 C-2.82 32.91 -1.25 32.89 0.31 32.88 C1.1 32.86 1.88 32.84 2.69 32.82 C3.83 32.81 3.83 32.81 4.99 32.8 C5.68 32.79 6.38 32.78 7.1 32.77 C9 33 9 33 12 35 C5.02 35.92 -1.78 36.13 -8.82 36.1 C-10.46 36.1 -10.46 36.1 -12.14 36.09 C-15.61 36.09 -19.09 36.08 -22.56 36.06 C-24.93 36.06 -27.3 36.05 -29.67 36.05 C-35.44 36.04 -41.22 36.02 -47 36 C-47 35.67 -47 35.34 -47 35 C-41.29 32.93 -36.96 33 -31 34 C-31.33 33.34 -31.66 32.68 -32 32 C-29.1 27.21 -25.92 23.87 -21.62 20.31 C-21.02 19.8 -20.42 19.29 -19.8 18.77 C-16.58 16.06 -13.3 13.44 -9.97 10.88 C-9.32 10.39 -8.68 9.89 -8.02 9.38 C-6.77 8.43 -5.53 7.49 -4.27 6.57 C-2.79 5.45 -1.39 4.23 0 3 C0 2.01 0 1.02 0 0 Z " fill="#78797A" transform="translate(179,37)"/>
<path d="M0 0 C12.54 0 25.08 0 38 0 C38.04 3.24 38.08 6.48 38.12 9.81 C38.14 10.83 38.16 11.85 38.18 12.89 C38.19 13.7 38.19 14.5 38.2 15.33 C38.21 16.57 38.21 16.57 38.23 17.82 C38 20 38 20 36 23 C33.48 23.3 31.21 23.42 28.69 23.4 C27.97 23.4 27.25 23.4 26.5 23.41 C24.97 23.41 23.44 23.4 21.91 23.39 C19.57 23.38 17.24 23.39 14.9 23.41 C13.41 23.41 11.93 23.4 10.44 23.4 C9.39 23.41 9.39 23.41 8.32 23.42 C5.5 23.38 3.46 23.29 1.05 21.77 C-0.31 19.48 -0.34 17.99 -0.29 15.33 C-0.29 14.53 -0.28 13.72 -0.27 12.89 C-0.24 11.88 -0.22 10.86 -0.19 9.81 C-0.13 6.57 -0.06 3.34 0 0 Z " fill="#000102" transform="translate(1141,0)"/>
<path d="M0 0 C11.88 0 23.76 0 36 0 C36.02 3.61 36.04 7.22 36.06 10.94 C36.07 12.08 36.08 13.22 36.09 14.39 C36.09 15.28 36.1 16.17 36.1 17.09 C36.1 18.01 36.11 18.92 36.11 19.87 C36 22 36 22 35 23 C30.48 23.22 25.95 23.19 21.42 23.19 C19.14 23.19 16.87 23.21 14.59 23.22 C13.15 23.23 11.7 23.23 10.26 23.23 C8.94 23.23 7.62 23.24 6.26 23.24 C3 23 3 23 0 21 C-0.34 18.85 -0.34 18.85 -0.29 16.21 C-0.29 15.36 -0.28 14.52 -0.27 13.64 C-0.24 12.56 -0.22 11.49 -0.19 10.38 C-0.13 6.95 -0.06 3.53 0 0 Z " fill="#000102" transform="translate(1082,0)"/>
<path d="M0 0 C0.76 -0.01 1.52 -0.01 2.31 -0.02 C4.79 0.28 6.38 1.09 8.56 2.25 C8.66 8.73 8.73 15.21 8.78 21.68 C8.8 23.89 8.83 26.09 8.86 28.29 C8.91 31.46 8.94 34.63 8.95 37.8 C8.97 38.78 8.99 39.77 9.02 40.78 C9.02 47.62 9.02 47.62 6.68 50.87 C4.23 52.46 2.9 52.76 0 52.69 C-0.76 52.69 -1.53 52.68 -2.32 52.68 C-4.99 52.14 -5.76 51.37 -7.44 49.25 C-7.82 47.12 -7.82 47.12 -7.83 44.63 C-7.84 43.69 -7.84 42.76 -7.85 41.8 C-7.85 40.79 -7.84 39.78 -7.84 38.75 C-7.84 37.71 -7.84 36.68 -7.84 35.61 C-7.85 33.43 -7.84 31.24 -7.83 29.05 C-7.81 25.7 -7.83 22.34 -7.85 18.99 C-7.85 16.86 -7.84 14.74 -7.84 12.62 C-7.84 11.61 -7.85 10.6 -7.85 9.57 C-7.84 8.63 -7.84 7.7 -7.83 6.74 C-7.82 5.92 -7.82 5.1 -7.82 4.25 C-7.69 3.59 -7.57 2.93 -7.44 2.25 C-4.33 0.18 -3.55 -0.02 0 0 Z " fill="#000102" transform="translate(1049.4375,174.75)"/>
<path d="M0 0 C1.3 -0.01 2.6 -0.03 3.93 -0.04 C7.32 0.17 9.54 0.72 12.56 2.19 C5.43 11.01 -3.11 18.03 -12.04 24.95 C-16.24 28.21 -20.33 31.6 -24.38 35.06 C-36.53 45.41 -36.53 45.41 -44.44 47.19 C-44.06 45.25 -44.06 45.25 -43.44 43.19 C-42.45 42.69 -42.45 42.69 -41.44 42.19 C-40.48 40.5 -39.52 38.81 -38.58 37.11 C-36.82 34.15 -34.78 31.72 -32.44 29.19 C-31.78 29.19 -31.12 29.19 -30.44 29.19 C-30.31 28.38 -30.31 28.38 -30.19 27.56 C-29.16 24.31 -27.47 21.9 -25.44 19.19 C-24.78 19.19 -24.12 19.19 -23.44 19.19 C-23.34 18.35 -23.34 18.35 -23.25 17.5 C-22.11 14.24 -19.88 12.63 -17.44 10.19 C-15.88 7.85 -14.4 5.49 -12.96 3.08 C-9.74 -0.92 -4.8 0.02 0 0 Z " fill="#000102" transform="translate(103.4375,36.8125)"/>
<path d="M0 0 C5.91 -0.07 11.82 -0.13 17.72 -0.16 C19.73 -0.18 21.74 -0.2 23.75 -0.23 C26.64 -0.26 29.53 -0.28 32.42 -0.29 C33.77 -0.32 33.77 -0.32 35.14 -0.34 C35.98 -0.34 36.82 -0.34 37.69 -0.34 C38.43 -0.35 39.16 -0.35 39.92 -0.36 C42 0 42 0 46 3 C36.1 3 26.2 3 16 3 C15.67 4.65 15.34 6.3 15 8 C12.83 10.45 12.83 10.45 10 13 C8.99 13.94 7.99 14.89 6.98 15.83 C5.91 16.83 4.83 17.82 3.75 18.81 C3.18 19.33 2.62 19.86 2.04 20.39 C-2.05 24.15 -6.19 27.84 -10.39 31.48 C-12.11 32.93 -12.11 32.93 -13 35 C-10.03 35.33 -7.06 35.66 -4 36 C-4 36.33 -4 36.66 -4 37 C-12.91 37 -21.82 37 -31 37 C-29.88 31.42 -29.88 31.42 -26.94 29.38 C-25.97 28.59 -25 27.81 -24 27 C-24 26.01 -24 25.02 -24 24 C-22.68 24 -21.36 24 -20 24 C-17.39 21.81 -17.39 21.81 -14.81 18.94 C-10.21 14.11 -5.41 9.92 0 6 C-0.33 5.01 -0.66 4.02 -1 3 C0.65 2.67 2.3 2.34 4 2 C2.68 1.34 1.36 0.68 0 0 Z " fill="#3F4041" transform="translate(148,99)"/>
<path d="M0 0 C0.33 0.66 0.66 1.32 1 2 C0.05 3.34 -0.91 4.67 -1.88 6 C-2.41 6.74 -2.94 7.48 -3.49 8.25 C-3.99 8.83 -4.49 9.41 -5 10 C-5.66 10 -6.32 10 -7 10 C-7.33 11.32 -7.66 12.64 -8 14 C-8.66 14 -9.32 14 -10 14 C-10.37 15.08 -10.37 15.08 -10.75 16.19 C-12.28 19.62 -13.14 21.47 -16 24 C-19.97 24.76 -23.9 24.63 -27.93 24.57 C-29.15 24.57 -30.37 24.57 -31.63 24.57 C-34.97 24.57 -38.31 24.54 -41.65 24.51 C-45.14 24.48 -48.63 24.47 -52.12 24.47 C-58.74 24.45 -65.35 24.41 -71.96 24.36 C-79.49 24.3 -87.02 24.28 -94.55 24.25 C-110.03 24.2 -125.52 24.11 -141 24 C-141 23.67 -141 23.34 -141 23 C-124.5 23 -108 23 -91 23 C-91 22.34 -91 21.68 -91 21 C-79.78 21 -68.56 21 -57 21 C-57 21.66 -57 22.32 -57 23 C-55.68 23 -54.36 23 -53 23 C-53 22.34 -53 21.68 -53 21 C-43.1 21 -33.2 21 -23 21 C-22.67 19.35 -22.34 17.7 -22 16 C-18.16 11.43 -13.8 8.45 -8 7 C-4.18 5.54 -2.41 3.27 0 0 Z " fill="#000102" transform="translate(273,51)"/>
<path d="M0 0 C2.64 0 5.28 0 8 0 C6.02 2.97 6.02 2.97 4 6 C5.65 4.02 7.3 2.04 9 0 C9.99 0.33 10.98 0.66 12 1 C11.34 1.99 10.68 2.98 10 4 C9.34 4 8.68 4 8 4 C7.92 4.58 7.84 5.16 7.75 5.75 C6.78 8.65 5.31 10.04 3 12 C2.34 12 1.68 12 1 12 C0.74 12.55 0.48 13.1 0.22 13.67 C-1.18 16.34 -2.79 18.77 -4.5 21.25 C-5.11 22.14 -5.72 23.03 -6.34 23.95 C-7.16 24.97 -7.16 24.97 -8 26 C-8.66 26 -9.32 26 -10 26 C-10.43 26.9 -10.43 26.9 -10.88 27.81 C-13.45 32.82 -13.45 32.82 -17 34 C-19.57 34.07 -22.12 34.09 -24.69 34.06 C-25.39 34.06 -26.09 34.05 -26.81 34.05 C-28.54 34.04 -30.27 34.02 -32 34 C-30.46 29.71 -27.21 27.61 -23.69 25 C-18.57 21.08 -13.6 17.06 -8.81 12.75 C-8.27 12.28 -7.73 11.81 -7.18 11.32 C-3.37 7.84 -1.72 4.74 0 0 Z " fill="#000102" transform="translate(202,102)"/>
<path d="M0 0 C0 3.9 -1.25 4.82 -3.75 7.75 C-7 11.68 -9.64 15.48 -12 20 C-6.19 17.04 -2.15 13.47 2.31 8.75 C3.53 7.47 4.76 6.19 5.99 4.92 C6.52 4.36 7.05 3.8 7.6 3.22 C9 2 9 2 11 2 C11 2.66 11 3.32 11 4 C11.66 4.33 12.32 4.66 13 5 C10.02 8.1 7.01 11.18 4 14.25 C3.16 15.12 2.32 16 1.46 16.89 C-2.84 21.25 -6.5 24.57 -12.12 27 C-15.8 28.95 -18.45 32.16 -21.25 35.19 C-22.44 36.46 -23.63 37.72 -24.83 38.98 C-25.34 39.54 -25.86 40.09 -26.39 40.66 C-28.25 42.2 -29.66 42.53 -32 43 C-33.73 44.16 -33.73 44.16 -35.25 45.56 C-36.16 46.37 -37.06 47.17 -38 48 C-36.8 45.51 -35.55 43.32 -34 41 C-33.71 40.4 -33.42 39.8 -33.12 39.19 C-31.64 36.3 -29.83 33.68 -28 31 C-27.34 30.01 -26.68 29.02 -26 28 C-25.34 28 -24.68 28 -24 28 C-23.92 27.26 -23.84 26.51 -23.75 25.75 C-22.84 22.43 -21.55 21.25 -19 19 C-18.42 18.42 -17.84 17.84 -17.25 17.25 C-16.84 16.84 -16.43 16.43 -16 16 C-15.67 16.66 -15.34 17.32 -15 18 C-14.34 17.01 -13.68 16.02 -13 15 C-12.01 15 -11.02 15 -10 15 C-9.96 14.15 -9.92 13.31 -9.88 12.44 C-8.44 6.79 -4.77 3.18 0 0 Z M-8 21 C-8.66 21.66 -9.32 22.32 -10 23 C-8.68 22.67 -7.36 22.34 -6 22 C-6.66 21.67 -7.32 21.34 -8 21 Z M-29 38 C-28 40 -28 40 -28 40 Z " fill="#555658" transform="translate(40,182)"/>
<path d="M0 0 C1.06 -0 2.12 -0 3.21 -0.01 C4.34 -0 5.47 0 6.64 0.01 C7.78 0.01 8.91 0.01 10.08 0.01 C17.73 0.05 25.29 0.29 32.89 1.13 C29.23 3.58 26.47 3.42 22.23 3.4 C21.11 3.4 21.11 3.4 19.97 3.4 C18.4 3.41 16.82 3.4 15.25 3.39 C12.83 3.38 10.42 3.39 8.01 3.41 C6.48 3.4 4.95 3.4 3.42 3.4 C2.69 3.4 1.97 3.41 1.22 3.41 C-3.88 3.36 -3.88 3.36 -6.11 1.13 C-4.42 -0.55 -2.31 0 0 0 Z " fill="#ADAEB0" transform="translate(122.109375,98.8671875)"/>
<path d="M0 0 C0.66 0.33 1.32 0.66 2 1 C0.39 3.71 -1.25 6.37 -3 9 C-1.68 8.34 -0.36 7.68 1 7 C0.79 7.6 0.59 8.2 0.38 8.81 C-0.31 11.28 -0.31 11.28 2 14 C0.19 14.62 0.19 14.62 -2 15 C-2.99 14.34 -3.98 13.68 -5 13 C-4.67 14.32 -4.34 15.64 -4 17 C-7 18 -7 18 -10 17 C-9.67 18.65 -9.34 20.3 -9 22 C-10.65 22 -12.3 22 -14 22 C-14 18.23 -12.93 17.23 -10.62 14.31 C-10 13.5 -9.37 12.7 -8.73 11.86 C-8.16 11.25 -7.59 10.63 -7 10 C-6.34 10 -5.68 10 -5 10 C-4.92 9.46 -4.84 8.93 -4.75 8.38 C-3.74 5.16 -1.93 2.74 0 0 Z " fill="#000102" transform="translate(36,112)"/>
<path d="M0 0 C0.99 0.66 1.98 1.32 3 2 C0.94 4.11 -1.12 6.21 -3.19 8.31 C-4.05 9.2 -4.05 9.2 -4.94 10.12 C-8.05 13.26 -10.93 16.12 -15 18 C-15.66 17.67 -16.32 17.34 -17 17 C-13.35 11.29 -9.52 6.06 -5 1 C-4.34 1.33 -3.68 1.66 -3 2 C-3.42 2.48 -3.84 2.96 -4.28 3.46 C-4.83 4.09 -5.37 4.72 -5.94 5.38 C-6.48 6 -7.03 6.63 -7.59 7.27 C-9.07 8.96 -9.07 8.96 -10 11 C-9.34 11 -8.68 11 -8 11 C-8 10.34 -8 9.68 -8 9 C-6.36 7.31 -4.69 5.65 -3 4 C-1.97 2.69 -0.96 1.36 0 0 Z " fill="#8C8D8E" transform="translate(44,185)"/>
<path d="M0 0 C0.99 0.33 1.98 0.66 3 1 C2.26 1.57 2.26 1.57 1.5 2.14 C-3.66 6.32 -6.86 10.66 -10.26 16.33 C-12.7 20.08 -15.67 23.04 -19 26 C-19 22.4 -18.17 21.75 -16 19 C-15.69 18.38 -15.38 17.76 -15.06 17.12 C-13.62 14.24 -11.81 11.66 -10 9 C-9.34 8.01 -8.68 7.02 -8 6 C-6.34 4.98 -4.68 3.98 -3 3 C-1.25 1.42 -1.25 1.42 0 0 Z " fill="#5A5B5D" transform="translate(22,204)"/>
<path d="M0 0 C2.33 -0.04 4.67 -0.04 7 0 C8 1 8 1 9 4 C7.19 6.69 7.19 6.69 5 9 C4.34 9 3.68 9 3 9 C2.67 10.32 2.34 11.64 2 13 C1.34 13 0.68 13 0 13 C1.88 7.25 1.88 7.25 3 5 C2.34 5 1.68 5 1 5 C0.67 3.35 0.34 1.7 0 0 Z " fill="#020304" transform="translate(274,38)"/>
<path d="M0 0 C0.66 0.33 1.32 0.66 2 1 C1.67 2.65 1.34 4.3 1 6 C0.34 6 -0.32 6 -1 6 C-0.67 6.66 -0.34 7.32 0 8 C0.99 7.34 1.98 6.68 3 6 C1.63 9.16 1.01 9.99 -2 12 C-2 11.34 -2 10.68 -2 10 C-2.66 10 -3.32 10 -4 10 C-4.12 10.76 -4.25 11.53 -4.38 12.31 C-5 15 -5 15 -7 18 C-7.99 18 -8.98 18 -10 18 C-9.51 16.51 -9.51 16.51 -9 15 C-8.34 15 -7.68 15 -7 15 C-6.92 14.46 -6.84 13.93 -6.75 13.38 C-5.72 10.13 -4.03 7.71 -2 5 C-1.34 5 -0.68 5 0 5 C0 3.35 0 1.7 0 0 Z " fill="#3C3D3E" transform="translate(66,136)"/>
<path d="M0 0 C0.99 0.99 1.98 1.98 3 3 C1.99 3.9 1.99 3.9 0.95 4.83 C0.06 5.63 -0.83 6.43 -1.75 7.25 C-2.63 8.04 -3.51 8.83 -4.42 9.64 C-6.68 11.71 -8.86 13.82 -11 16 C-9.45 9.13 -4.83 4.83 0 0 Z " fill="#000102" transform="translate(23,205)"/>
<path d="M0 0 C0.66 0.33 1.32 0.66 2 1 C0.39 3.71 -1.25 6.37 -3 9 C-1.68 8.34 -0.36 7.68 1 7 C0.79 7.6 0.59 8.2 0.38 8.81 C-0.31 11.28 -0.31 11.28 2 14 C0.68 14.33 -0.64 14.66 -2 15 C-4.04 12.8 -5.02 11.69 -4.94 8.62 C-3.77 5.36 -2.02 2.81 0 0 Z " fill="#040506" transform="translate(36,112)"/>
<path d="M0 0 C0 0.99 0 1.98 0 3 C-0.66 3 -1.32 3 -2 3 C-2.27 3.6 -2.54 4.2 -2.81 4.81 C-4.01 7.03 -5.2 8.27 -7 10 C-8.02 11.33 -8.02 11.33 -9.06 12.69 C-9.7 13.45 -10.34 14.21 -11 15 C-11.66 15 -12.32 15 -13 15 C-13 15.66 -13 16.32 -13 17 C-13.66 16.67 -14.32 16.34 -15 16 C-7.11 2.96 -7.11 2.96 0 0 Z " fill="#555657" transform="translate(49,167)"/>
<path d="M0 0 C0.66 0 1.32 0 2 0 C0.43 3.85 -2.02 6.15 -5 9 C-5.52 9.55 -6.05 10.09 -6.59 10.65 C-8.02 12.14 -9.51 13.57 -11 15 C-11.66 15 -12.32 15 -13 15 C-12.34 13.68 -11.68 12.36 -11 11 C-10.34 11 -9.68 11 -9 11 C-8.77 10.42 -8.55 9.84 -8.31 9.25 C-6.67 6.43 -4.56 4.99 -2 3 C-1.34 2.01 -0.68 1.02 0 0 Z " fill="#434445" transform="translate(103,138)"/>
<path d="M0 0 C0.99 0.66 1.98 1.32 3 2 C-0.63 5.63 -4.26 9.26 -8 13 C-8.66 12.34 -9.32 11.68 -10 11 C-9.34 11 -8.68 11 -8 11 C-8 10.34 -8 9.68 -8 9 C-6.36 7.31 -4.69 5.65 -3 4 C-1.97 2.69 -0.96 1.36 0 0 Z " fill="#ABACAE" transform="translate(44,185)"/>
<path d="M0 0 C0.66 0.33 1.32 0.66 2 1 C-2.95 5.95 -7.9 10.9 -13 16 C-13.66 15.67 -14.32 15.34 -15 15 C-10 10 -5 5 0 0 Z " fill="#B1B2B4" transform="translate(76,165)"/>
<path d="M0 0 C0 3.56 -0.76 4.41 -2.88 7.19 C-3.41 7.9 -3.94 8.62 -4.49 9.36 C-4.99 9.9 -5.49 10.44 -6 11 C-6.66 11 -7.32 11 -8 11 C-7.42 7.11 -5.58 4.89 -3 2 C-2.01 1.34 -1.02 0.68 0 0 Z " fill="#202122" transform="translate(40,182)"/>
<path d="M0 0 C0.66 0.33 1.32 0.66 2 1 C0.72 2.67 -0.58 4.34 -1.88 6 C-2.59 6.93 -3.31 7.86 -4.05 8.81 C-4.7 9.53 -5.34 10.26 -6 11 C-6.66 11 -7.32 11 -8 11 C-8 11.66 -8 12.32 -8 13 C-8.66 13 -9.32 13 -10 13 C-8.6 8.54 -6.4 6.15 -3 3 C-2.4 2.4 -1.8 1.8 -1.19 1.19 C-0.8 0.8 -0.4 0.4 0 0 Z " fill="#2A2B2C" transform="translate(44,183)"/>
<path d="M0 0 C0.99 0.33 1.98 0.66 3 1 C2.47 1.44 1.94 1.87 1.39 2.32 C-2.87 5.91 -6.18 9.18 -9 14 C-10 11 -10 11 -9.38 8.5 C-7.69 5.44 -6.04 4.63 -3 3 C-1.25 1.42 -1.25 1.42 0 0 Z " fill="#9C9D9F" transform="translate(22,204)"/>
<path d="M0 0 C0.71 1.73 0.71 1.73 1 4 C-0.43 6.14 -0.43 6.14 -2.44 8.25 C-3.1 8.96 -3.75 9.66 -4.43 10.39 C-4.95 10.92 -5.47 11.45 -6 12 C-6.33 11.34 -6.66 10.68 -7 10 C-5.87 6.62 -4.52 5.44 -2 3 C-1.34 2.01 -0.68 1.02 0 0 Z " fill="#030405" transform="translate(23,198)"/>
<path d="M0 0 C0.66 0.33 1.32 0.66 2 1 C2 3 2 3 0.36 4.73 C-0.36 5.35 -1.08 5.98 -1.81 6.62 C-2.87 7.57 -2.87 7.57 -3.96 8.54 C-6 10 -6 10 -9 10 C-6.03 6.7 -3.06 3.4 0 0 Z " fill="#2C2D2E" transform="translate(65,172)"/>
<path d="M0 0 C0.66 0.33 1.32 0.66 2 1 C-0.97 3.47 -0.97 3.47 -4 6 C-4.66 5.67 -5.32 5.34 -6 5 C-4.02 3.35 -2.04 1.7 0 0 Z " fill="#000102" transform="translate(31,207)"/>
<path d="M0 0 C1.32 0.33 2.64 0.66 4 1 C3.36 1.1 2.72 1.21 2.06 1.31 C1.04 1.65 1.04 1.65 0 2 C-0.33 2.99 -0.66 3.98 -1 5 C-1.33 4.34 -1.66 3.68 -2 3 C-1.34 2.01 -0.68 1.02 0 0 Z " fill="#000102" transform="translate(86,158)"/>
<path d="M0 0 C0.99 0.33 1.98 0.66 3 1 C2.01 1.99 1.02 2.98 0 4 C-0.66 3.67 -1.32 3.34 -2 3 C-1.34 2.01 -0.68 1.02 0 0 Z " fill="#000102" transform="translate(107,141)"/>
<path d="M0 0 C0 0.99 0 1.98 0 3 C-0.66 2.67 -1.32 2.34 -2 2 C-1.34 1.34 -0.68 0.68 0 0 Z " fill="#000102" transform="translate(7,227)"/>
<path d="M0 0 C0.66 0.66 1.32 1.32 2 2 C1.01 2 0.02 2 -1 2 C-0.67 1.34 -0.34 0.68 0 0 Z " fill="#000102" transform="translate(9,224)"/>
<path d="M0 0 C0 0.99 0 1.98 0 3 C-0.66 2.67 -1.32 2.34 -2 2 C-1.34 1.34 -0.68 0.68 0 0 Z " fill="#000102" transform="translate(53,188)"/>
<path d="M0 0 C0 0.99 0 1.98 0 3 C-0.66 2.67 -1.32 2.34 -2 2 C-1.34 1.34 -0.68 0.68 0 0 Z " fill="#000102" transform="translate(99,149)"/>
<path d="M0 0 C0.33 0.66 0.66 1.32 1 2 C0.34 2.66 -0.32 3.32 -1 4 C-0.67 2.68 -0.34 1.36 0 0 Z " fill="#000102" transform="translate(117,92)"/>
<path d="M0 0 C0.66 0.33 1.32 0.66 2 1 C1.01 1 0.02 1 -1 1 C-0.67 0.67 -0.34 0.34 0 0 Z " fill="#000102" transform="translate(80,165)"/>
<path d="M0 0 C0.33 0.66 0.66 1.32 1 2 C0.34 1.67 -0.32 1.34 -1 1 C-0.67 0.67 -0.34 0.34 0 0 Z " fill="#000102" transform="translate(24,213)"/>
<path d="M0 0 C0.33 0.66 0.66 1.32 1 2 C0.34 1.67 -0.32 1.34 -1 1 C-0.67 0.67 -0.34 0.34 0 0 Z " fill="#000102" transform="translate(77,168)"/>
<path d="M0 0 C2 1 2 1 2 1 Z " fill="#0F1011" transform="translate(0,232)"/>
<path d="M0 0 C2 1 2 1 2 1 Z " fill="#000102" transform="translate(54,187)"/>
<path d="M0 0 C2 1 2 1 2 1 Z " fill="#000102" transform="translate(100,148)"/>
<path d="" fill="#000102" transform="translate(0,0)"/>
<path d="" fill="#000102" transform="translate(0,0)"/>
<path d="" fill="#B1B2B4" transform="translate(0,0)"/>
<path d="" fill="#B1B2B4" transform="translate(0,0)"/>
<path d="" fill="#000102" transform="translate(0,0)"/>
<path d="" fill="#000102" transform="translate(0,0)"/>
<path d="" fill="#000102" transform="translate(0,0)"/>
<path d="" fill="#000102" transform="translate(0,0)"/>
<path d="" fill="#000102" transform="translate(0,0)"/>
<path d="" fill="#000102" transform="translate(0,0)"/>
<path d="" fill="#000102" transform="translate(0,0)"/>
<path d="" fill="#000102" transform="translate(0,0)"/>
<path d="" fill="#000102" transform="translate(0,0)"/>
<path d="" fill="#000102" transform="translate(0,0)"/>
<path d="" fill="#000102" transform="translate(0,0)"/>
<path d="" fill="#000102" transform="translate(0,0)"/>
<path d="" fill="#000102" transform="translate(0,0)"/>
<path d="" fill="#000102" transform="translate(0,0)"/>
<path d="" fill="#000102" transform="translate(0,0)"/>
</svg>
